<svg id="Слой_1" data-name="Слой 1" xmlns="http://www.w3.org/2000/svg" viewBox="0 0 236.57 268.85"><defs><style>.cls-1,.cls-2{fill:none;stroke:#000;stroke-miterlimit:10;}.cls-1{stroke-width:3px;}.cls-3{font-size:35.05px;font-family:STHeitiSC-Light, Heiti SC;font-weight:300;}</style></defs><title>logo</title><rect x="114.89" y="99.51" width="14.36" height="14.72"/><path class="cls-1" d="M394.32,252.33" transform="translate(-293.8 -167.54)"/><rect class="cls-1" x="100.52" y="84.79" width="112.73" height="112.73"/><rect class="cls-1" x="16.52" y="1.5" width="112.73" height="112.73"/><path class="cls-2" d="M408.68,267.05" transform="translate(-293.8 -167.54)"/><rect class="cls-2" x="114.89" y="99.51" width="112.73" height="112.73"/><rect class="cls-2" x="30.89" y="16.22" width="112.73" height="112.73"/><text class="cls-3" transform="translate(0 258.69)">Х И М ЕРА</text><line class="cls-2" x1="16.52" y1="114.23" x2="30.89" y2="128.95"/><line class="cls-2" x1="129.25" y1="1.5" x2="143.61" y2="16.22"/><line class="cls-2" x1="16.52" y1="1.5" x2="30.89" y2="16.22"/><line class="cls-2" x1="129.25" y1="114.23" x2="143.61" y2="128.95"/><line class="cls-2" x1="100.52" y1="197.52" x2="114.89" y2="212.24"/><line class="cls-2" x1="213.25" y1="84.79" x2="227.61" y2="99.51"/><line class="cls-2" x1="100.52" y1="84.79" x2="114.89" y2="99.51"/><line class="cls-2" x1="213.25" y1="197.52" x2="227.61" y2="212.24"/></svg>