<?xml version="1.0" encoding="utf-8"?>
<!-- Generator: Adobe Illustrator 23.0.1, SVG Export Plug-In . SVG Version: 6.00 Build 0)  -->
<svg version="1.1" id="Слой_2" xmlns="http://www.w3.org/2000/svg" xmlns:xlink="http://www.w3.org/1999/xlink" x="0px" y="0px"
	 viewBox="0 0 1252.34 2072.52" style="enable-background:new 0 0 1252.34 2072.52;" xml:space="preserve">
<path d="M468.51,322.22c14.95-0.12,31.13-2.31,46.35,0.58c6.78,1.29,15.49,12.41,16.24,19.79c0.75,7.41-5.46,18.05-11.89,23.14
	c-13.73,10.86-29.34,19.43-44.59,28.25c-39.88,23.06-80.38,2.51-84.63-43.56c-2.97-32.17-4.72-64.5-5.67-96.8
	c-1-33.84,15.9-59.2,49.54-66.49c35.48-7.68,72.37-14.25,108.32-12.9c39.2,1.47,88.22,41.34,70.76,96.52
	c-4.97,15.69-13.82,22.06-28.63,18.16c-26.72-7.03-53.39-13.56-69.87-40.3c-10.18-16.51-34.42-19.38-50.45-8.53
	c-4.78,3.24-10.82,10.61-10.07,15.03C457.92,278.67,463.9,301.9,468.51,322.22z"/>
<path d="M769.57,1302.39c3.19-0.03,10.01,0.66,16.59-0.27c17.99-2.56,28.54,7.33,25.61,24.7c-8.29,49.04-69.98,97.01-119.65,92.89
	c-13.67-1.14-25.06-4.95-29.4-20.73c-1.02-3.73-9.47-7.23-14.72-7.59c-8.65-0.59-17.48,2.25-26.24,2.27
	c-32.76,0.08-50.99-28.76-37.35-58.52c7.74-16.89,34.84-31.73,54.76-29.99c15.73,1.37,27.04,14.88,33.3,36.98
	c1.55,5.46,7.12,11.24,12.33,13.56c2.58,1.15,8.92-4.78,12.79-8.34c2.95-2.72,4.59-6.83,6.99-10.19
	c19.47-27.33,19.69-27.8-2.94-52.17c-2.77-2.99-9.41-3.45-14.2-3.29c-13.55,0.43-27.14,3.12-40.57,2.36
	c-10.23-0.58-22.11-2.62-29.81-8.51c-7.22-5.52-14.46-17.53-13.42-25.62c1.15-9,10.04-21.14,18.41-24.24
	c19.6-7.27,40.8-10.56,61.55-14.33c22.11-4.02,38.62,5.94,52.24,22.83c4.11,5.1,10.05,9.99,16.13,11.96
	c13.16,4.28,29.26,7.32,30.38,22.69C783.11,1279.47,774.31,1290.81,769.57,1302.39z"/>
<path d="M1047.63,58.12c10.6-9.14,21.49-9.4,34.24-3.56c10.95,5.01,22.92,8.25,34.76,10.76c23.73,5.05,39.51,32.22,26.96,53.31
	c-40.43,67.98-98.6,111.59-178.69,122.07c-19.85,2.6-37.58-2.39-46.48-14.15c-30.55,0.24-57.13,3.17-82.96-0.03
	c-32.28-4-41.48-30.53-20.39-55.37c25.81-30.4,60.54-46.52,98.88-54.55c7.33-1.53,16.67,1.15,23.7,4.66
	c14.66,7.33,16.72,23.05,4.88,34.57c-10.92,10.63-22.93,20.14-35.13,30.73c3.08,3.97,6.26,8.08,9.05,11.68
	c44.09-15.85,87.78-31.32,131.29-47.28c21.91-8.04,26.36-32.88,9.57-48.38c-13.65-12.6-13.65-28.53-9.09-45.1L1047.63,58.12z"/>
<path d="M228.93,445.04c-14.36-1.22-35.95-2.38-57.35-5.06c-22.96-2.88-37.78-22.88-33.73-51.94c4.54-32.55,12.52-64.83,21.74-96.43
	c6.31-21.63,23.93-34.71,46.72-34.35c39.99,0.64,78.49,9.23,112.2,32.26c19.25,13.15,24.67,33.47,15.39,52.74
	c-6.51,13.52-16.73,20.69-31.39,12.93c-11.85-6.28-23.12-13.95-33.71-22.21c-12.36-9.64-24.79-8.74-35.75-0.1
	c-11.7,9.23-17.7,22.37-12.42,37.69c3.89,11.28,12.59,14.35,24.17,11.99c19.04-3.88,38.12-7.88,57.39-10.23
	c15.34-1.87,28.37,3.25,33.03,19.99c4.58,16.48-3.95,27.27-17.07,35.2C292.89,442.78,264.67,444.65,228.93,445.04z"/>
<path d="M165.46,747.21c0.07,8.85,0.13,22.96,0.31,37.07c0.15,12.25,6.49,19.41,18.68,18.07c15.72-1.72,31.29-5,46.86-7.99
	c17.38-3.35,33.75,3.72,42.07,18.76c8.65,15.63,4.66,29.79-6.17,42.29c-33.59,38.73-106.56,40.35-142.16,3.65
	c-9.99-10.3-15.02-20.43-6.14-34.42c7.33-11.55-0.75-18.29-10.28-23.02c-16.21-8.04-28.02-19.92-31.79-37.9
	c-3.85-18.41,4.49-32.68,21.48-42.28c20.94-11.83,41.77-23.95,61.93-37.04c35.49-23.04,88.69-7.91,101.7,29.2
	c4.47,12.76,0.18,23.18-11.43,25.02C222.64,743.05,194.28,744.5,165.46,747.21z"/>
<path d="M1086.17,415.73c-18.86,1.12-37.7,2.83-56.57,3.22c-26.48,0.54-36.53-7.46-46.75-31.72c-2.95-7.01-10.35-12.14-15.67-18.17
	c-9.29-10.54-20.51-19.97-27.43-31.9c-17.01-29.34-6.17-59.68,24.88-73.15c26.47-11.48,53.98-11.42,81.55-4.73
	c15.96,3.87,29.51,11.51,28.44,30.72c-1.01,17.98-13.21,26.33-29.5,30.88c-5.84,1.63-13.69,5.08-15.62,9.76
	c-4.09,9.9-11.12,21.07,3.57,30.61c17.32,11.24,42.37,16.87,53.2,8.27c2.89-2.3,4.35-9.23,3.3-13.2
	c-8.85-33.41,3.94-50.24,38.56-46.56c12.19,1.3,25.17,7.14,35.2,14.45c26.43,19.26,26.57,54.88-1.79,70.83
	c-22.41,12.61-48.91,17.94-73.59,26.51C1087.36,419.61,1086.76,417.67,1086.17,415.73z"/>
<path d="M702.7,156.14c-30.45,31.87-60.28,31.71-91.32-0.1c-15.24-15.62-13.85-30.28,1.75-45.78c8.26-8.21,13.72-19.28,20.18-29.23
	c1.9-2.92,2.02-7.49,4.46-9.5c22.08-18.22,42.56-39.63,67.37-52.9c21.5-11.5,47.8-18.73,73.35-10.97
	c13.59,4.13,27.03,11.31,38.2,20.09c10.71,8.43,10.77,21.61,4.6,34.09c-5.98,12.11-16.14,18.64-28.85,15.07
	c-14.53-4.07-28.84-10.12-42.02-17.51c-10.49-5.88-18.99-7.52-29.4-0.71c-11.57,7.57-7.61,17.26-4.83,26.75
	c4.79,16.35,6.06,34.84,28.07,47.18c-2.56-9.57-5.62-15-4.96-19.93c1.02-7.6,2.52-17.64,7.67-21.48c5.05-3.76,15.26-2.52,22.54-0.74
	c5.9,1.44,10.92,6.76,16.14,10.63c25.03,18.55,27.44,38.24,8.1,65.14c-14.32,19.92-35.28,21.95-58.9,6.7
	C725.11,166.63,714.22,162.08,702.7,156.14z"/>
<path d="M480.33,1018.7c1.33,5.38,2.08,8.73,3,12.03c4.82,17.28-4.71,29.78-22.43,27.42c-8.38-1.12-17.62-4.51-24.04-9.81
	c-11.48-9.47-21.77-20.63-31.36-32.1c-9.78-11.7-5.67-24.44,8.17-31.33c3.76-1.87,7.41-5.19,9.61-8.77
	c17.1-27.84,41.09-37.3,72.44-28.48c29.86,8.4,62.01,10.05,87.67,30.76c2.74,2.21,8.01,1.14,12.02,1.98
	c27.88,5.87,36.39,19.3,30.39,47.02c-1.11,5.13-1.24,10.56-1.15,15.84c0.58,31.88-10.18,50.78-41.04,57.02
	c-22.95,4.64-47.75,2.76-71.39,0.41c-14.71-1.46-20.08-15.72-19.76-29.46c0.35-15.3,13.31-15.94,24.48-17.31
	c9.94-1.22,20.14-0.93,29.88-2.98c10.8-2.28,13.95-11.36,6.3-18.21c-11.73-10.51-23.88-22.73-42.83-18.31
	C501.21,1016.54,491.76,1017.12,480.33,1018.7z"/>
<path d="M706.87,746.37c-37.74-1.75-66.47,12.38-93.67,30.79c-6.33,4.28-11.72,9.93-17.67,14.8c-9.47,7.75-19.12,8.58-28.53-0.02
	c-8.29-7.58-16.79-15-24.41-23.22c-11.07-11.94-21.39-24.59-12.73-42.58c7.83-16.27,27.38-25.89,47.79-23.6
	c21.96,2.47,43.89,6.47,65.88,6.9c12.24,0.24,25.53-3.51,36.7-8.88c24.13-11.6,48.17-19.31,74.95-11.43
	c2.8,0.82,6.07,1.35,8.13,3.16c17,14.86,35.37,26.18,58.29,30.51c4.64,0.88,10.14,13.09,9.77,19.78
	c-0.32,5.73-8.02,15.16-13.24,15.73c-15.89,1.74-23.84,10.54-33.27,22.33c-14.18,17.73-36.22,24.4-58.58,25.56
	c-17.76,0.92-33.35-30.55-25.42-49.31C701.93,754.35,703.59,752.05,706.87,746.37z"/>
<path d="M676.78,287.82c4.58,19.85,1.18,37.73-11.85,54.6c-9.22,11.94,0.56,30.2,15.74,33.89c9.65,2.35,20.03,3.61,28.54,8.21
	c10.71,5.79,18.34,15.38,14.89,29.23c-4.13,16.59-15.67,26.67-31.49,30.42c-35.43,8.39-65.44-7.88-80.72-41.87
	c-2.08-4.62-6.22-8.52-9.99-12.14c-17.58-16.87-19.67-31.48-6.75-51.9c2.83-4.47,5.67-9.45,9.76-12.53
	c18.78-14.17,26.2-33.72,30.07-56.08c4.59-26.46,37.2-44.87,62.09-34.58c16.67,6.89,31.07,12.53,49.51,3.17
	c13.92-7.07,31.11,2.85,38.32,17.09c8.06,15.93,4.4,33.84-9.93,48.6c-14.02,14.44-32.42,18.77-48.3,10.55
	c-4.48-2.32-8.96-6.11-11.53-10.38C702.74,283.54,702.97,283.4,676.78,287.82z"/>
<path d="M896.74,555.37c-18.53-2.54-37.36-3.78-55.48-8.04c-14.69-3.45-24.62-13.61-25.11-30.34c-0.51-17.26,10.04-27.74,24.61-30.1
	c16.83-2.72,35.52-3.97,51.52,0.66c22.72,6.57,43.67,8.33,65.19-1.44c19.19-8.71,36.09-4.87,49.62,10.52
	c15.57,17.7,31.17,35.57,44.67,54.83c13.47,19.21,12.79,36.12,1.67,49.02c-10.05,11.67-41.95,20.09-55.94,14.07
	c-3.96-1.7-8.45-5.32-9.94-9.14c-15.89-40.9-45.54-58.01-88.7-52.67c-0.58,0.07-1.18,0.02-1.77,0.02
	C896.97,553.63,896.85,554.5,896.74,555.37z"/>
<path d="M312.34,175.18c0.61-8.04,1.75-13.37,1.25-18.55c-1.14-11.8,1.51-23.75,13.63-24.94c10.48-1.03,24.36,2.31,31.58,9.16
	c4.65,4.4,0.35,18.69-0.75,28.45c-0.35,3.13-4.17,5.74-4.98,8.95c-9.08,35.72-25,48.87-63.17,51.7
	c-41.56,3.09-80.25-42.94-72.01-89.02c4.2-23.46,12.42-46.82,22.59-68.45c15.23-32.39,49.5-42.57,77.05-25.66
	c13.89,8.53,20.38,21.09,18.22,37.37c-1.99,15.03-11.13,26.77-25.38,28.28c-21.77,2.32-25.15,16.68-26.41,32.95
	C282.54,163.49,296.5,168.54,312.34,175.18z"/>
<path d="M918.95,1025.14c44.03-0.16,77.97,31.38,69.13,67.77c-7.94,32.7-27.66,58.13-61.01,70.79c-15.79,6-30.52,14.93-46.47,20.35
	c-13.02,4.42-27.33,8.46-40.71,7.52c-17.39-1.22-34.44-7.47-51.6-11.68c-13.81-3.39-22.56-11.07-19.34-26.48
	c2.84-13.6,12.8-16.5,31.5-12.72c14.17,2.87,29.03,5.89,43.17,4.53c26.22-2.51,42.02-20.65,50.72-43.89
	c2.25-6.01-1.81-15.95-5.76-22.38c-7.37-12.02-16.68-24.83-6.03-37.03c8.37-9.59,22.24-14.38,33.67-21.3
	C917.12,1022.13,918.04,1023.64,918.95,1025.14z"/>
<path d="M862.55,401.25c5.47-3.65,11.11-7.07,16.38-11c15.42-11.52,34.78-8.97,49,6.66c12.36,13.6,12.88,32.9,0.88,46.59
	c-17.74,20.23-40.36,21.54-64.9,17.03c-49.89-9.15-85.2-41.81-89.53-82.92c-2.1-19.97,3.71-36.13,20.33-47.72
	c18.93-13.21,38.04-25.86,62.7-25.43c16.05,0.28,28.71,5.44,36.09,20.51c7.66,15.65-0.22,27.05-10.33,37.81
	c-6.05,6.45-12.78,12.38-18.08,19.4c-3.33,4.42-4.57,10.42-6.75,15.72C859.74,399.02,861.14,400.14,862.55,401.25z"/>
<path d="M364.55,818.07c-11.29-9.83-19.98-17.58-28.87-25.1c-14.14-11.97-14.21-26.04,1.03-36.36c7.19-4.87,15.66-8.52,24.07-10.76
	c23.85-6.36,47.87-12.13,72-17.33c27.19-5.87,45.84,13.14,35.8,38.96c-9.92,25.51-14.03,50.18-11.28,77.57
	c2.57,25.63-19.46,45.32-48.41,44.71c-22.78-0.48-42.52-10.56-55-30.57C344.77,844.58,347.92,830.81,364.55,818.07z"/>
<path d="M396.85,649.27c-43.37,0.18-79.44,0.26-103.31-29.11c-15.55-19.13-26.01-42.95-35.92-65.89
	c-5.9-13.66,4.48-25.57,19.54-26.91c20.2-1.81,37.65,3.73,49.82,20.75c17.15,23.99,40.47,32.75,69.28,30.99
	c18.76-1.15,38.14-3.09,56.27,0.39c10.83,2.08,23.42,12.19,28.17,22.08c2.74,5.7-6.46,20.58-13.96,27.1
	C444.41,648.03,416.28,649.57,396.85,649.27z"/>
<path d="M153.21,614.8c-28.15-0.41-61.98-22.98-68.94-44.83c-5.74-18.02,0.37-33.49,11.44-45.86
	c22.61-25.28,49.25-45.97,82.17-56.43c25.2-8.01,37.35,4.46,31.75,30c-5.25,23.93-9.82,48.06-13.25,72.31
	C192.42,597.91,176.69,615.14,153.21,614.8z"/>
<path d="M1113.44,1111.55c-28.15-0.41-61.98-22.98-68.94-44.83c-5.74-18.02,0.37-33.49,11.44-45.86
	c22.61-25.28,49.25-45.97,82.17-56.43c25.2-8.01,37.35,4.46,31.75,30c-5.25,23.93-9.82,48.06-13.25,72.31
	C1152.65,1094.66,1136.91,1111.9,1113.44,1111.55z"/>
<path d="M789.98,999.75c13.62,3.88,30.48,6.66,45.49,13.48c18.51,8.41,16.75,37.31-3.15,49.52c-10.76,6.6-23.63,10.05-35.87,13.88
	c-13.27,4.15-22.56,10.23-18.76,26.19c0.13,0.56,0.06,1.18,0.07,1.76c0.86,27.46-5.6,39-22.85,40.81
	c-19.7,2.07-39.48-13.93-43.87-35.47C700.59,1058.67,741.23,1000.03,789.98,999.75z"/>
<path d="M1048.23,57.48c-10.86,9.58-22.97,12.52-37.51,9.76c-9.32-1.76-19.28-0.19-30.43-0.1c12.43,31.09,6.63,41.78-23.23,44.17
	c-34.57,2.77-65.25-7.55-89.29-33.6c-13.53-14.66-10.96-29.14,7.66-36.31c44.98-17.31,91.67-26.31,140.02-21.95
	c24.43,2.2,33.68,14.58,32.18,38.67C1047.63,58.12,1048.23,57.48,1048.23,57.48z"/>
<path d="M478.05,141.58c-12.39-3.27-33.75-7.63-54.16-14.7c-16.28-5.63-16.69-30.03,0.23-39.8c9.86-5.69,23.23-7.46,34.97-7.3
	c35.32,0.49,31.16,0.22,35.97-24.67c3.81-19.71,17.55-28.03,37.9-25.62c19.51,2.3,31.72,16.35,31.37,36.08
	C563.64,104.07,526.11,141.01,478.05,141.58z"/>
<path d="M735.62,929.78c-12.39-3.27-33.75-7.63-54.16-14.7c-16.28-5.63-16.69-30.03,0.23-39.8c9.86-5.69,23.23-7.46,34.97-7.3
	c35.32,0.49,31.16,0.22,35.97-24.67c3.81-19.71,17.55-28.03,37.9-25.62c19.51,2.3,31.72,16.35,31.37,36.08
	C821.22,892.28,783.69,929.22,735.62,929.78z"/>
<path d="M93.32,136.84c-12.39-3.27-33.75-7.63-54.16-14.7c-16.28-5.63-16.69-30.03,0.23-39.8c9.86-5.69,23.23-7.46,34.97-7.3
	c35.32,0.49,31.16,0.22,35.97-24.67c3.81-19.71,17.55-28.03,37.9-25.62c19.51,2.3,31.72,16.35,31.37,36.08
	C178.92,99.34,141.39,136.28,93.32,136.84z"/>
<path d="M76.68,1179.71c-12.39-3.27-33.75-7.63-54.16-14.7c-16.28-5.63-16.69-30.03,0.23-39.8c9.86-5.69,23.23-7.46,34.97-7.3
	c35.32,0.49,31.16,0.22,35.97-24.67c3.81-19.71,17.55-28.03,37.9-25.62c19.51,2.3,31.72,16.35,31.37,36.08
	C162.27,1142.21,124.74,1179.15,76.68,1179.71z"/>
<path d="M906.62,701.7c-18.39,0.07-30.74-10.63-40.8-24.2c-6.88-9.28-13.19-16.05-26.56-16.85c-18.96-1.13-24.82-15.54-16.74-33.18
	c2.23-4.86,0.53-11.51,2.75-16.37c3.47-7.57,7.35-17.91,13.66-20.35c5.93-2.29,17.89,1.8,22.56,7.14
	c15.45,17.68,31.87,29.86,56.94,30.76c21.19,0.76,38.59,21.01,37.34,38.15C954.4,685.52,931.83,701.53,906.62,701.7z"/>
<path d="M955.48,931.69c-18.39,0.07-30.74-10.63-40.8-24.2c-6.88-9.28-13.19-16.05-26.56-16.85c-18.96-1.13-24.82-15.54-16.74-33.18
	c2.23-4.86,0.53-11.51,2.75-16.37c3.47-7.57,7.35-17.91,13.66-20.35c5.93-2.29,17.89,1.8,22.56,7.14
	c15.45,17.68,31.87,29.86,56.94,30.76c21.19,0.76,38.59,21.01,37.34,38.15C1003.26,915.51,980.69,931.52,955.48,931.69z"/>
<path d="M475.26,511.63c-0.68,29.45-18.09,40.6-42.73,24.87c-17.92-11.44-35.85-17.94-56.9-20.59
	c-10.93-1.38-22.23-10.33-30.61-18.64c-9.71-9.61-7.91-21.19,2.6-31.03c31.93-29.88,47.81-31.14,84.55-6.51
	c8.27,5.55,17.08,10.31,25.47,15.68C470.83,483.86,475.96,496.36,475.26,511.63z"/>
<path d="M374.31,1371.4c-43.37,0.18-79.44,0.26-103.31-29.11c-15.55-19.13-26.01-42.95-35.92-65.89
	c-5.9-13.66,4.48-25.57,19.54-26.91c20.2-1.81,37.65,3.73,49.82,20.75c17.15,23.99,40.47,32.75,69.28,30.99
	c18.76-1.15,38.14-3.09,56.27,0.39c10.83,2.08,23.42,12.19,28.17,22.08c2.74,5.7-6.46,20.58-13.96,27.1
	C421.88,1370.17,393.75,1371.7,374.31,1371.4z"/>
<path d="M452.73,1233.76c-0.68,29.44-18.09,40.6-42.73,24.87c-17.92-11.44-35.85-17.94-56.9-20.59
	c-10.93-1.38-22.23-10.33-30.61-18.64c-9.71-9.61-7.91-21.19,2.6-31.03c31.93-29.88,47.81-31.14,84.55-6.51
	c8.27,5.55,17.08,10.31,25.47,15.68C448.3,1205.99,453.43,1218.49,452.73,1233.76z"/>
<path d="M1179.31,842.04c-0.68,29.45-18.09,40.6-42.73,24.87c-17.92-11.44-35.85-17.94-56.9-20.59
	c-10.93-1.38-22.23-10.33-30.61-18.64c-9.71-9.61-7.91-21.19,2.6-31.03c31.93-29.88,47.81-31.14,84.55-6.51
	c8.27,5.55,17.08,10.31,25.47,15.68C1174.89,814.27,1180.01,826.77,1179.31,842.04z"/>
<path d="M598.4,1194.6c-0.68,29.44-18.09,40.6-42.73,24.87c-17.92-11.44-35.85-17.94-56.9-20.59
	c-10.93-1.38-22.23-10.33-30.61-18.64c-9.71-9.61-7.91-21.19,2.6-31.03c31.93-29.88,47.81-31.14,84.55-6.51
	c8.27,5.55,17.08,10.31,25.47,15.68C593.97,1166.83,599.1,1179.33,598.4,1194.6z"/>
<path d="M549.24,589.73c34.94,1.31,55.43,13.24,68.47,36.93c8.4,15.25,4.91,28.96-11.69,34.38c-19.36,6.32-39.89,10.42-60.18,12.08
	c-16.56,1.35-34.52-2.45-41.35-20.79c-6.41-17.22,3.22-33.02,14.1-44.41C527.97,598.08,542.75,593.38,549.24,589.73z"/>
<path d="M996.61,777.5c-9.67-2.19-19.76-3.32-28.84-6.98c-5.31-2.14-11.01-7.56-13.01-12.84c-5.86-15.51,5.86-49.84,19.47-60.04
	c5.14-3.85,10.74-7.21,16.48-10.1c14.03-7.09,28.47-12.27,42.91-1.21c14.64,11.21,18.19,26.69,15.59,44.13
	C1045.3,756.78,1023.62,775.7,996.61,777.5z"/>
<path d="M74.06,340.76c-9.67-2.19-19.76-3.32-28.84-6.98c-5.31-2.14-11.01-7.56-13.01-12.84c-5.86-15.51,5.86-49.84,19.47-60.04
	c5.14-3.85,10.74-7.21,16.48-10.1c14.03-7.09,28.47-12.27,42.91-1.21c14.64,11.21,18.19,26.69,15.59,44.13
	C122.74,320.04,101.06,338.96,74.06,340.76z"/>
<path d="M74.06,1011.84c-9.67-2.19-19.76-3.32-28.84-6.98c-5.31-2.14-11.01-7.56-13.01-12.84c-5.86-15.51,5.86-49.84,19.47-60.04
	c5.14-3.85,10.74-7.21,16.48-10.1c14.03-7.09,28.47-12.27,42.91-1.21c14.64,11.21,18.19,26.69,15.59,44.13
	C122.74,991.12,101.06,1010.04,74.06,1011.84z"/>
<path d="M1146.84,630.52c-9.67-2.19-19.76-3.32-28.84-6.98c-5.31-2.14-11.01-7.56-13.01-12.84c-5.86-15.51,5.86-49.84,19.47-60.04
	c5.14-3.85,10.74-7.21,16.48-10.1c14.03-7.09,28.47-12.27,42.91-1.21c14.64,11.21,18.19,26.69,15.59,44.13
	C1195.53,609.8,1173.85,628.72,1146.84,630.52z"/>
<path d="M581.93,453.84c-0.61,25.87-18.95,43.31-45.72,43.49c-16.56,0.11-30.72-13.32-29.91-28.38
	c1.79-33.27,12.23-51.84,28.89-51.38C558.7,418.23,582.34,436.57,581.93,453.84z"/>
<path d="M623.31,893.99c-0.61,25.87-18.95,43.31-45.72,43.49c-16.56,0.11-30.72-13.32-29.91-28.38
	c1.79-33.27,12.23-51.84,28.89-51.38C600.09,858.38,623.72,876.72,623.31,893.99z"/>
<path d="M0,1311.29c51.3,4.61,97.55,23.44,139.74,51.96c35.38,23.91,69.63,49.5,104.1,74.73c14.77,10.81,18.39,27.83,22.01,44.4
	c15.37,70.32-0.99,136.82-24.15,202.66c-23.67,67.3-147.32,102.74-199.52,23.12c-13.34-20.35-26.36-40.91-39.53-61.37
	C1.77,1534.95,0.88,1423.12,0,1311.29z"/>
<path d="M710.89,2074.74c-35.69,0.27-71.37,0.79-107.06,0.63c-6.73-0.03-14.08-1.48-20.05-4.47c-26.02-13-51.85-26.45-77.36-40.43
	c-28.89-15.83-38.21-37.43-27.11-68.33c6.43-17.89,16.7-34.51,26.16-51.18c26.62-46.93,54.12-93.36,80.49-140.43
	c19.49-34.8,43.84-47.06,82.81-39.61c105.16,20.09,164.24,81.27,183.78,191.66c4.32,24.43,5.39,49.43,8.68,74.07
	c2.47,18.54-2.85,33.77-12.03,50.22c-11.7,20.97-25.1,29.76-49.61,27.79C770.22,2072.3,740.48,2074.51,710.89,2074.74z"/>
<path d="M66.16,2079.85c-5.61-40.18-13.22-78.88-15.57-117.91c-1.23-20.36,4.94-41.84,10.97-61.84
	c26.73-88.57,143.12-119.87,203.4-87.8c72.03,38.32,125.5,95.28,157.66,171.36c13.2,31.24,4.32,59.6-8.6,87.65
	c-1.54,3.35-8.93,5.58-13.64,5.65c-52.1,0.8-104.2,1.07-156.31,1.48c-52.57,0.42-105.15,0.83-157.72,1.25
	C81.25,2079.73,76.15,2079.77,66.16,2079.85z"/>
<path d="M758.8,941.17c4.67,0.41,9.44,0.35,13.99,1.31c62.86,13.29,125.58,27.23,188.56,39.9c28.71,5.77,46.23,25.38,63.33,46.14
	c2.05,2.49,2.74,7.02,2.38,10.42c-7.9,75.3-30.38,144.18-88.89,196.49c-9.35,8.36-19.72,16.2-30.86,21.8
	c-22.75,11.44-45.47,8.04-64.69-7.78c-53.27-43.84-106.06-88.27-158.47-133.13c-23.19-19.85-29.95-46.47-18.31-74.06
	c11.02-26.12,25.51-51.09,41-74.93C718.31,949.67,736.76,940.63,758.8,941.17z"/>
<path d="M1013.98,1993.7c-19.84-1.15-33.5-1.19-46.95-2.89c-23.51-2.97-41.03-15.13-51.49-36.77c-0.82-1.69-1.93-3.28-2.47-5.05
	c-20.19-66.31-46.73-130.88-56.47-200.08c-4.14-29.42,0.4-58.26,12.99-85.19c4.87-10.42,11.7-20.53,19.71-28.77
	c39.38-40.52,80.94-34.71,107.99,15.21c43.05,79.46,78.4,163.1,116.51,245.21c4.67,10.07,7.17,21.4,9.15,32.41
	c4.96,27.63-4.7,45.61-31.88,52.49C1063.95,1987.14,1035.83,1990.04,1013.98,1993.7z"/>
<path d="M292.89,1682.17c3.68-31.13,16.28-60.51,41.55-82.88c19.03-16.86,43.37-17.08,65.43-9.49
	c21.35,7.35,42.16,18.39,60.67,31.41c29.88,21.02,57.73,44.93,86.33,67.76c9.62,7.68,15.63,29.71,9.25,43.09
	c-18.16,38.07-35.99,76.47-57.29,112.79c-12.37,21.08-36.06,26.29-59.8,22.32c-11.33-1.89-23.02-5.92-32.86-11.79
	c-58.56-34.97-95.64-85.99-110.78-152.65C294.04,1696.82,293.88,1690.64,292.89,1682.17z"/>
<path d="M486.14,1392.14c16.19,3.4,31.37,4.79,45.22,9.84c38.32,13.98,55,46.39,43.08,85.45c-7.77,25.46-17.77,50.43-28.98,74.6
	c-13.37,28.84-32.12,37.02-63.03,30.77c-57.4-11.6-109.83-34.57-157.07-69.2c-30.35-22.24-34.21-54.98-7.82-81.8
	c10.49-10.66,24.34-21.22,38.39-24.57C399.14,1406.94,443.17,1400.15,486.14,1392.14z"/>
<path d="M746.31,1692.29c-46.29-5.42-98.25-20.41-147.14-45.36c-17.63-9-27.15-25.06-21.89-44.42c7.81-28.71,16.27-57.75,29-84.48
	c12.68-26.62,37.75-34.32,67.34-33.49c52.38,1.47,93.27,22.49,122.3,65.65c20.36,30.26,31.37,63.01,18.79,99.74
	C804.15,1680.76,787.43,1692.45,746.31,1692.29z"/>
<path d="M900.78,1544.18c-50.94-0.57-93.62-42.69-94.1-90.94c-0.04-3.73,1.52-8.65,4.14-11.05c27.67-25.32,55.66-50.29,83.68-75.23
	c10.15-9.04,21.95-9.91,34.32-5.55c7.07,2.49,15.27,3.95,20.7,8.54c27.77,23.55,56.88,46.06,81.46,72.68
	c20.08,21.74,13.53,50.6-12.08,66.21c-14.96,9.12-32.17,15.11-49.04,20.37c-19.21,5.98-39.14,9.69-58.82,14.12
	C906.98,1544.26,902.64,1544.04,900.78,1544.18z"/>
<path d="M209.59,929.59c11.8,4.15,25.53,5.73,35.03,12.91c32.47,24.54,64.77,49.65,94.39,77.46c12.58,11.81,19.36,30.4,26.89,46.78
	c5.45,11.86,2.31,23.12-7.83,33.06c-22.66,22.21-47.6,40.81-76.14,54.83c-9.95,4.89-18.77,4.67-27.94-0.58
	c-18.28-10.45-34.58-23.27-42.34-43.52c-15.09-39.38-30.07-78.83-43.64-118.75C160.54,969.78,187.78,931.4,209.59,929.59z"/>
<path d="M1042.94,1188.52c11.8,4.15,25.53,5.73,35.03,12.91c32.47,24.54,64.77,49.65,94.39,77.46
	c12.58,11.81,19.36,30.4,26.89,46.78c5.45,11.86,2.31,23.12-7.83,33.06c-22.66,22.21-47.6,40.81-76.14,54.83
	c-9.95,4.89-18.77,4.67-27.94-0.58c-18.28-10.45-34.58-23.27-42.34-43.52c-15.09-39.38-30.07-78.83-43.64-118.75
	C993.88,1228.72,1021.13,1190.34,1042.94,1188.52z"/>
<path d="M631.77,452.19c11.8,4.15,25.53,5.73,35.03,12.91c32.47,24.54,64.77,49.65,94.39,77.46c12.58,11.81,19.36,30.4,26.89,46.78
	c5.45,11.86,2.31,23.12-7.83,33.06c-22.66,22.21-47.6,40.81-76.14,54.83c-9.95,4.89-18.77,4.67-27.94-0.58
	c-18.28-10.45-34.58-23.27-42.34-43.52c-15.09-39.38-30.07-78.83-43.64-118.75C582.72,492.39,609.96,454.01,631.77,452.19z"/>
<path d="M1121.71,1499.04c10.64-2.25,18.16,2.78,23.46,15.38c16.53,39.29,34.29,78.05,51.47,117.06c6.18,14.02,4.67,28.03-3.5,40.37
	c-9.78,14.79-19.87,29.75-32.08,42.48c-17.78,18.53-37.79,16.79-54.66-2.69c-3.95-4.56-7.48-9.72-10.16-15.13
	c-15.18-30.68-31.05-61.08-44.79-92.41C1026.39,1546.95,1056.76,1500.71,1121.71,1499.04z"/>
<path d="M1107.18,2070.95c-67.49,0.53-132.66,1.05-198.54,1.57C956.95,2025.82,1047.99,2020.88,1107.18,2070.95z"/>
<path d="M1249.87,1798.46c0.84,67.48,1.65,132.65,2.47,198.53C1205.42,1948.9,1200.06,1857.88,1249.87,1798.46z"/>
</svg>
