<?xml version="1.0" encoding="utf-8"?>
<!-- Generator: Adobe Illustrator 23.0.1, SVG Export Plug-In . SVG Version: 6.00 Build 0)  -->
<svg version="1.1" id="Слой_1" xmlns="http://www.w3.org/2000/svg" xmlns:xlink="http://www.w3.org/1999/xlink" x="0px" y="0px"
	 viewBox="0 0 1206.52 1900.34" style="enable-background:new 0 0 1206.52 1900.34;" xml:space="preserve">
<style type="text/css">
	.st0{fill:#FFFFFF;}
</style>
<path d="M-1.38,1407.09c12.44-8.76,24.36-18.13,37.45-26.14c15.74-9.63,33.45-16.23,52.9-18.36c37.5-4.1,65.32,9.46,80.6,39.71
	c11.82,23.4,14.06,48.19,10.22,73.17c-2.52,16.38-14.63,28.94-27.96,40.45c-9.25,7.99-18.91,15.66-27.84,23.89
	c-12.07,11.12-13.51,24.08-5.42,36.97c9.62,15.34,20.58,30.08,31.07,45.03c5.12,7.3,7.2,15.11,3.09,22.97
	c-2.22,4.25-5.84,9.41-10.41,11.11c-18.35,6.85-36.41,14.8-56.69,17.05c-27.18,3.01-52.91-2.11-78.06-10.13
	c-1.94-0.62-3.89-1.23-5.83-1.84C0.7,1576.34-0.34,1491.71-1.38,1407.09z"/>
<path d="M-4.13,1182.59c5.84,3.36,12.82,5.88,17.32,10.23c23.08,22.3,34.18,48.36,31.15,78.22c-2.49,24.5-18.45,39.79-46.82,45.54
	C-3.04,1271.92-3.59,1227.25-4.13,1182.59z"/>
<path d="M1093.3,1619.93c-0.17,23.08-3.45,41.31-14.23,58.15c-9.98,15.59-20.91,20.39-41.57,17.79
	c-30.27-3.82-56.44-15.68-81.37-29.86c-20.89-11.88-37.42-27.02-49.93-45.61c-7.04-10.47-15.01-20.72-24.23-29.86
	c-13.73-13.62-28.48-14.5-45.07-3.21c-9.17,6.23-17.05,13.84-25.38,20.93c-9.32,7.93-17.94,16.51-27.84,23.87
	c-19.92,14.82-38.69,16.18-62.02,5.38c-21.34-9.87-37.54-24.55-52.47-40.38c-0.29-0.31-0.5-0.67-0.81-0.95
	c-25.45-22.79-27.99-49.4-18.25-78.23c11.44-33.85,28.73-65.41,52.87-94.08c20.51-24.36,47.96-40.72,83.7-44.19
	c51.48-5,88.95,10.74,110,51.76c5.32,10.37,11.77,20.34,18.12,30.3c17.94,28.1,48.22,40.31,83.87,41.79
	c23.21,0.96,40.28,7.91,54.16,22.79C1079.65,1555.02,1091.68,1588.03,1093.3,1619.93z"/>
<path d="M463.79,1670.08c-1.61,28.02-3.95,49.76-18.22,68.84c-5.91,7.9-13.8,14.73-20.6,22.16c-10.21,11.16-20.36,22.37-30.37,33.66
	c-15.85,17.89-30.63,17.52-44.86-1.29c-3.61-4.77-6.94-9.69-10.58-14.44c-3.66-4.78-8.77-6.51-15.75-6.89
	c-12.38-0.67-24.9-1.81-36.89-4.34c-13.23-2.8-21.86-10.82-25.17-22.14c-2.43-8.33-4.25-16.8-5.92-25.27
	c-3.33-16.94-9.09-33.26-19.37-48.02c-20.83-29.91-15.9-57.44,9.5-83.56c3.39-3.48,6.7-7.04,10.41-10.28
	c8.92-7.79,18.34-8.91,29.52-3.57c4.22,2.02,8.44,4.15,12.19,6.72c18.38,12.6,38.72,13.48,60.23,7.17
	c6.54-1.92,13.36-3.77,19.14-6.86c17.62-9.4,34.45-5.39,47.91,4.41c19.06,13.88,28.73,32.41,33.83,52.62
	C461.86,1651.18,462.81,1663.73,463.79,1670.08z"/>
<path d="M509.93,1313.22c-0.17-14.15-1.14-28.01-0.34-41.81c1.53-26.43,19.86-45.26,41.88-62.04c8.72-6.65,18.69-11.6,30.55-13.23
	c1.14-0.16,2.33-0.54,3.43-0.41c22.51,2.53,43.79,7.57,60.6,21.49c0.33,0.27,0.64,0.58,0.87,0.91
	c9.59,13.67,24.05,18.17,42.52,18.57c39.95,0.87,62.15,27.95,50.95,60.66c-2.06,6.01-4.37,11.97-6.8,17.88
	c-5.73,13.92-15.19,25.33-30.27,33.4c-7.2,3.85-13.75,8.69-20.1,13.55c-13.69,10.48-29.4,15.31-47.95,16
	c-33.08,1.24-63.57-3.75-89.97-22.73c-1.19,6.16-1.8,11.37-3.24,16.41c-4.78,16.65-16.78,24.63-36.96,24.27
	c-8.06-0.15-16.33-0.64-24.05-2.38c-4.69-1.06-9.51-4.17-12.5-7.49c-4.12-4.59-6.4-10.32-9.78-15.42
	c-2.57-3.89-5.71-7.51-8.42-11.34c-1.26-1.79-3.14-3.84-2.99-5.68c1.06-12.53,5.72-23.9,18.94-30.96
	C478.38,1316.42,490.7,1314.14,509.93,1313.22z"/>
<path d="M715.33,1768.92c1.02-20.95,7.79-40.22,26.9-55.23c8.23-6.47,18.09-9.42,29.24-11.13c8.27-1.27,16.84-4.57,23.61-8.85
	c14.76-9.32,30.1-16.66,48.64-18.88c34.91-4.18,73.39,13.76,87.08,41.15c2.96,5.92,5.28,12.08,7.77,18.17
	c3.93,9.6,9.62,18.17,19.47,24.37c0.74,0.46,1.58,0.93,2.03,1.58c17.21,24.66,26.17,50.36,10.06,77.94
	c-10.13,17.35-27.24,27.09-50.61,27.04c-6.48-0.01-13.78-0.98-19.24-3.63c-11.11-5.4-21.14-12.33-31.8-18.42
	c-2.16-1.23-5.08-2.08-7.67-2.1c-6.47-0.05-12.96,0.27-19.41,0.82c-28.65,2.44-56.62,0.79-82.44-10.84
	C729.98,1817.88,716.49,1796.63,715.33,1768.92z"/>
<path d="M189.33,1178.15c17.15-0.29,34.3,4.49,46.55,18.54c4.66,5.35,9.77,10.44,14.04,15.99c6.31,8.2,9.45,17.5,5.31,26.86
	c-6.59,14.88-3.37,29.3,0.08,43.94c3.98,16.9,8.03,33.85,5.33,51.23c-0.93,5.97-2.35,12.03-4.79,17.67
	c-6.44,14.93-22.07,23.29-40.51,20.58c-15.37-2.26-30.63-5.66-45.36-9.96c-6.82-1.99-13.43-6.51-18.08-11.3
	c-10.98-11.3-20.33-23.73-31.12-35.17c-8.45-8.96-17.66-17.46-27.3-25.52c-7.23-6.05-11.49-12.96-11.24-21.29
	c0.42-14.47,1.44-28.94,2.81-43.37c0.76-8.04,6.58-14.08,13.55-19.25C114.92,1194.99,155.56,1177.93,189.33,1178.15z"/>
<path d="M1063.13,1396.38c0.08,6.4,0.69,12.12,0.07,17.74c-0.64,5.78-1.61,11.74-3.97,17.15c-6.72,15.43-20.91,21.58-39.81,17.79
	c-17.23-3.45-31.87-11.2-45.93-19.92c-5.58-3.46-11.02-7.45-17.29-9.66c-33.61-11.87-55.8-34.16-75.38-58.64
	c-6.66-8.32-11.65-17.69-16.54-26.91c-5.65-10.65-1.85-19.71,8.36-27.32c13.47-10.03,29.33-16.38,45.8-21.81
	c22.12-7.3,44.87-12.41,68.55-14.47c13.18-1.14,24.43,2.23,33.61,9.79c12.73,10.49,25.35,21.14,37.11,32.4
	c13.88,13.27,16.12,29.72,10.61,45.86C1063.89,1371.31,1062.11,1383.94,1063.13,1396.38z"/>
<path d="M208.06,1493.28c0.45-15.2,4.19-33.29,11.6-50.72c10.26-24.16,32.36-36.28,60.96-41.21c18.76-3.23,36.85-0.31,54.63,4.59
	c10.7,2.95,18.49,9.22,23.23,17.5c8.62,15.05,19.3,28.95,32.03,41.6c13.75,13.67,7.01,28.86-3.09,38.68
	c-22.6,21.99-49.96,36.4-84.91,41.03c-20.63,2.74-39.89,1.55-59.37-3.62C218.01,1534.46,206.78,1520.45,208.06,1493.28z"/>
<path d="M495.26,1578.49c-17.13-0.24-38.5-3.72-58.19-13.02c-29.24-13.82-38.23-37.43-22.03-62.25
	c6.85-10.5,16.25-20.03,25.82-28.99c9.42-8.81,22.2-11.13,35.79-7.87c7.77,1.86,15.22,4.66,22.97,6.57
	c5.49,1.36,11.34,3.05,16.85,2.65c10.58-0.76,15.34-4.48,12.32-13.45c-5.81-17.26,7.94-25.23,22.04-26.1
	c12.06-0.75,24.82-0.42,36.38,2.2c16.21,3.67,24.46,14.87,27.06,28.55c2.63,13.85-2.65,25.45-17.37,32.61
	c-12.16,5.92-17.19,14.12-14.29,25.42c4.13,16.08-3.81,27.08-19.12,35.84C543.74,1571.98,522.09,1578.37,495.26,1578.49z"/>
<path d="M197.34,1791.67c0.42,12.47-2.27,23.92-12.41,33.89c-3.1,3.05-3.97,8.19-4.57,12.5c-1.02,7.36-0.52,14.86-1.61,22.2
	c-1.1,7.41-6.11,13.06-15.23,14.17c-17.93,2.18-32.37,9.98-46.19,19.09c-11.89,7.83-23.97,9.85-36.56,1.06
	c-2.08-1.45-4.8-2.44-7.41-3.14c-12.25-3.28-19.05-10.92-22.3-20.76c-3.84-11.64-6.64-23.52-10.07-35.27
	c-1.21-4.15-2.5-8.36-4.54-12.24c-6.79-12.98-4.38-24.92,5.9-35.7c4.76-4.99,10.19-9.8,16.27-13.59
	c19.79-12.31,39.85-24.48,64.14-29.78c13.04-2.85,26.23-2.29,39.05,1.27C185.96,1752.09,196.88,1766.42,197.34,1791.67z"/>
<path d="M1212.67,1394.26c1.03,83.52,2.05,167.03,3.09,251.57c-5.74-2.35-10.95-4.3-15.95-6.57
	c-23.94-10.88-45.08-24.56-60.41-43.89c-9.5-11.97-14.66-25.04-14.74-39.67c-0.05-10.16-0.84-20.37-2.31-30.46
	c-0.83-5.71-2.72-11.63-5.83-16.7c-11.25-18.35-5.99-34.55,8.51-49.48c5.55-5.71,12.11-10.91,19-15.49
	c23.47-15.62,49.64-28.55,67.04-50.09C1211.61,1393.75,1212.14,1394.01,1212.67,1394.26z"/>
<path d="M1211.85,1301.31c-15.1,3.22-29.27,0.49-43.5-0.68c-3.91-0.32-7.85-0.59-11.77-0.55c-5.2,0.05-9.04,1.8-11.67,6.05
	c-6.17,10.01-14.71,11.75-24.53,3.89c-23.78-19.03-35.18-42.46-32.57-70.54c0.85-9.12,0.14-18.32,0.62-27.47
	c0.73-13.94,8.6-24.55,22.49-31.91c3.7-1.96,7.76-3.96,11.95-4.62c22.47-3.58,44.92-7.8,67.61-9.72
	c19.29-1.63,19.71-0.15,19.91,15.87c0.46,37.59,0.92,75.18,1.38,112.77C1211.79,1296.54,1211.81,1298.67,1211.85,1301.31z"/>
<path d="M580.67,1650.25c14.37,1.73,28.79,3.2,43.09,5.28c8.16,1.19,14.9,4.89,20.39,10.33c6.59,6.53,14.6,12.18,20.21,19.23
	c6.35,7.98,11.58,16.8,15.75,25.77c5.95,12.79,2.24,25.02-6.62,36.2c-11.96,15.09-28.34,25.82-47.85,33
	c-15.17,5.58-31.59,2.17-43.26-10.51c-8.66-9.4-15.87-20.13-21.44-31.1c-7.09-13.95-14.59-27-31.13-34.6
	c-0.8-0.37-1.5-0.92-2.17-1.45c-15.56-12.35-23.15-27.97,3.51-40.99C546.53,1653.87,563.04,1651.21,580.67,1650.25z"/>
<path d="M375.81,1225.9c9.22,2.83,19.12,4.66,27.52,8.71c17.34,8.37,28.54,21.55,34.14,37.65c4.79,13.78-8.55,31.85-25.9,37.27
	c-17.75,5.55-35.22,11.74-52.98,17.27c-3.21,1-7.45,0.91-10.79,0.08c-12.53-3.11-23.37-9.06-30.92-17.88
	c-3.42-3.99-5.2-10.35-4.45-15.3c3.56-23.46,17.31-42.65,37.92-58.37c6.9-5.26,15.42-7.87,24.82-8
	C375.38,1226.86,375.6,1226.38,375.81,1225.9z"/>
<path d="M1093.8,1764.1c-1.01,18.24-14.25,31.21-32.65,41.18c-4.63,2.51-9.99,4.11-15.11,5.91c-7.83,2.76-14.61,0.87-20.2-4.03
	c-15.05-13.21-21.75-29.22-21.31-47.45c0.14-5.94,3.97-9.4,11.03-10.2c2.53-0.29,5.04-0.75,7.58-0.91
	c11.74-0.71,21.08-4.98,28.77-12.6c9.64-9.56,21.09-9.39,30.65,0.17C1090.16,1743.8,1093.17,1752.93,1093.8,1764.1z"/>
<path d="M533.17,1832.64c-2.87,7.97-4.66,15.48-8.29,22.29c-3.68,6.92-10.43,8.84-19.18,7.15c-2.69-0.52-5.53-1.03-7.88-2.17
	c-8.77-4.26-17.56-6.23-27.75-3.21c-2.77,0.82-8.39-0.51-9.94-2.44c-4.67-5.84-8.51-12.3-11.45-18.91c-0.71-1.6,2.7-5.91,5.3-6.89
	c6.32-2.38,9.06-6.18,10.38-11.54c1.17-4.76,2.63-9.54,4.71-14.06c1.98-4.29,6.15-5.25,10.72-2.67c3.82,2.17,7.39,4.69,10.91,7.21
	c3.89,2.78,7.74,3.1,11.97,0.56c1.88-1.13,3.93-2.09,5.98-2.99c6.6-2.89,11.38-2.23,14.39,3.49
	C527.1,1816.2,529.8,1824.43,533.17,1832.64z"/>
<path d="M1045.38,1179.64c-2.87,7.97-4.66,15.48-8.29,22.29c-3.68,6.92-10.43,8.84-19.18,7.15c-2.69-0.52-5.53-1.03-7.88-2.17
	c-8.77-4.26-17.56-6.23-27.75-3.21c-2.77,0.82-8.39-0.51-9.94-2.44c-4.67-5.84-8.51-12.3-11.45-18.91c-0.71-1.6,2.7-5.91,5.3-6.89
	c6.32-2.38,9.06-6.18,10.38-11.54c1.17-4.76,2.63-9.54,4.71-14.06c1.98-4.29,6.15-5.25,10.72-2.67c3.82,2.17,7.39,4.69,10.91,7.21
	c3.89,2.78,7.74,3.1,11.97,0.56c1.88-1.13,3.93-2.09,5.98-2.99c6.6-2.89,11.38-2.23,14.39,3.49
	C1039.32,1163.19,1042.02,1171.43,1045.38,1179.64z"/>
<path d="M846.01,1154.19c14.51-0.34,23.14,5.56,25.49,17.61c0.6,3.07,0.24,6.32,1.11,9.31c1.18,4.05,2.22,8.46,4.9,11.8
	c10.26,12.75,4.29,26.49-13.81,27.5c-30.1,1.68-50.32-8.17-55.04-33.65C805.64,1170.42,823.74,1154.71,846.01,1154.19z"/>
<path d="M643.17,1387.81c6.87-1.66,13.93-2.9,20.58-5.05c14.06-4.56,27.36,2.11,27.44,14.73c0.09,14.42-6.59,26.79-19.44,36.3
	c-9.89,7.31-33.44,8.81-43.52,3.53c-12.79-6.69-20.32-21.91-17.18-34.74c2.6-10.66,10.43-16.27,23.21-16.62
	c2.77-0.08,5.55-0.07,8.33-0.11C642.78,1386.49,642.98,1387.15,643.17,1387.81z"/>
<path d="M1216.8,1704.73c0.09,7.23-0.18,14.48,0.39,21.68c0.37,4.6-2.03,6.39-6.8,7.02c-22.25,2.94-46.23-5.62-45.45-31.99
	c0.25-8.55,2.28-16.68,9.01-23.5c8.63-8.75,22.6-11.03,33.72-5.55c5.9,2.91,9.88,6.36,9.07,13.01
	C1215.97,1691.78,1216.72,1698.28,1216.8,1704.73z"/>
<path d="M206.33,1706.49c-1.99,4.34-3.12,8.2-5.43,11.45c-2.77,3.9-7.04,4.92-12.64,3.5c-3.59-0.91-7.8-0.03-11.73-0.09
	c-5.1-0.08-11.09,1.09-15.13-0.73c-11.2-5.05-18.03-13.11-17.71-24.6c0.27-9.91,3.28-18.95,11.04-26.59
	c9.97-9.81,24.07-8.55,31.15,2.83c1.81,2.91,2.55,6.3,4.38,9.2c2.95,4.7,6.53,9.11,9.57,13.78
	C202.21,1698.89,204.18,1702.74,206.33,1706.49z"/>
<path d="M808.02,1261.36c13.42,1.37,29.3,11.73,32.07,21.66c0.11,0.38,0.21,0.76,0.24,1.15c0.66,8.82-13.01,27.79-22.72,31.54
	c-8.76,3.38-18.07,1.11-24.48-5.97c-9.74-10.75-10.08-30.31,0.34-40.63C797.01,1265.59,803.09,1263.89,808.02,1261.36z"/>
<path d="M1148.31,1396.34c-7.47-1.76-15.5-2.93-22.79-5.55c-9.7-3.49-12.48-10.66-8.67-18.95c8.76-19.07,33.72-23.4,50.04-19.5
	c5.58,1.33,8.57,4.54,8.32,9.49c-0.57,11.57-7.15,21.39-14.19,30.75C1159.27,1394.92,1153.24,1394.99,1148.31,1396.34z"/>
<path d="M327.03,1374.24c-11.17,0.07-13.3-1.63-13.47-11.02c-0.11-5.87-2.09-10.97-6.8-15.5c-6.6-6.34-5.26-12.04,3.28-16.46
	c9.87-5.11,23.82-4.56,33.29,1.57c8.93,5.78,14.43,13.4,16.89,22.77c1.23,4.7-0.47,7.94-4.67,10.74
	C347.16,1371.93,337.39,1373.85,327.03,1374.24z"/>
<path d="M599.16,1580.52c13.29-0.05,25.74,9.69,25.89,20.24c0.14,9.81-13.36,23.59-23.14,23.6c-15.38,0.03-30.17-9.06-30.2-18.56
	C571.68,1593.26,585.46,1580.57,599.16,1580.52z"/>
<path d="M630,1846.56c4.53,0.65,9.22,0.88,13.55,2.04c7.12,1.9,9.76,6.09,6.82,11.88c-6.92,13.62-18.89,23.62-34.2,30.51
	c-6.72,3.02-12.72,0.11-15.88-6.39C591.68,1866.88,607.33,1847.01,630,1846.56z"/>
<path d="M282.95,1835.83c2.88-8.7,4.64-16.82,8.29-24.28c3.45-7.07,10.95-10.46,20.26-9.84c8.73,0.58,15.38,4.18,19.05,10.94
	c3.87,7.14,1.18,13.67-4.95,18.75c-6.23,5.16-13.04,10.07-20.47,13.85c-4.26,2.17-11.37,3.74-15.16,2.15
	C286.28,1845.85,285.21,1839.92,282.95,1835.83z"/>
<path d="M288.17,1192.04c1.5-4.68,2.47-9.54,4.6-14.01c4.8-10.08,15.45-13.09,26.66-7.98c9.57,4.36,15.22,13.03,14.24,21.82
	c-0.99,8.76-10.69,19.71-19.56,22.06c-5.85,1.55-10.96,0.29-15.54-2.9C292.53,1206.83,289.14,1200.08,288.17,1192.04z"/>
<path d="M1132.35,1825.05c1.5-4.68,2.47-9.54,4.6-14.01c4.8-10.08,15.45-13.09,26.66-7.98c9.57,4.36,15.22,13.03,14.24,21.82
	c-0.98,8.76-10.69,19.71-19.56,22.06c-5.85,1.55-10.96,0.29-15.54-2.9C1136.71,1839.84,1133.32,1833.08,1132.35,1825.05z"/>
<path d="M464.72,1198.71c8.94,0.01,23.31,9.82,24.51,15.64c1.11,5.38-1.98,9.05-7.52,11.34c-5.84,2.41-13.3,1.44-15.73-3.47
	c-2.93-5.91-4.01-12.57-5.03-19.01C460.7,1201.65,463.84,1199.7,464.72,1198.71z"/>
<path d="M645.48,603.96c39.4,19.47,78.4,38.4,120.45,49.57c11.61,3.09,24.12,2.93,36.25,3.93c7.96,0.66,15.97,0.75,23.95,1
	c1.9,0.06,3.87-0.04,5.7-0.49c12.86-3.12,25.56-7.22,38.57-9.36c23.68-3.89,47.46-7.56,71.35-9.61c31.33-2.69,62.81-3.73,94.22-5.46
	c0.97-0.05,2.01-0.04,2.91,0.25c3.58,1.15,8.37,1.4,10.36,3.88c2.86,3.56-0.22,14.43-4.76,17.28c-7.36,4.62-15.08,8.97-23.17,12.08
	c-17.53,6.74-36.15,9.13-54.65,11.46c-20.91,2.63-41.92,4.49-62.87,6.86c-1.79,0.2-3.44,1.68-4.92,2.44
	c-2.1-0.48-4.36-1.45-6.61-1.43c-13.9,0.15-27.82,0.12-41.68,0.96c-12.06,0.73-24.13,2.06-36.07,3.94
	c-28.25,4.43-56.06,2.2-83.75-4.14c-17.48-4-35.45-6.45-52.41-12.02c-11.53-3.78-22.12-11.11-32.36-18
	c-13.62-9.16-28.19-14.77-44.45-16.58c-15.69-1.75-31.27-4.52-46.99-5.85c-12.58-1.07-23.06-7.11-33.91-12.25
	c-27.23-12.91-55.82-20.95-85.55-25.24c-29.49-4.25-59.14-5.32-88.9-5.19c-5.46,0.02-10.93-2.54-16.42-3.78
	c-1.57-0.36-3.39,0.08-4.83-0.5c-1.27-0.51-2.18-1.94-3.25-2.96c4.66-2.36,1.61-4.79,0.06-6.47c3.4-2.19,6.52-4.03,9.48-6.12
	c12.14-8.58,25.71-13.06,40.47-13.78c26.17-1.28,52.37-2.02,78.53-3.58c23.2-1.38,46.41-2.96,69.49-5.63
	c13.83-1.6,27.45-5.28,41.09-8.38c18.13-4.12,36.35-4.51,54.79-2.75c11.82,1.13,23.79,2.26,35.59,1.6
	c24.47-1.36,48.11-7.44,70.76-16.68c16.02-6.53,31.25-15.03,47.37-21.24c12.43-4.79,25.39-8.69,39.34-6.44
	c17.52,2.83,34.64-0.98,51.65-4.63c18.7-4.01,37.18-9.17,56-12.42c23.83-4.11,44.58,2.14,59.89,22.1c4.77,6.22,4.16,9.32-3.54,11.02
	c-14.07,3.11-28.28,5.81-42.55,7.76c-21.46,2.93-43.04,4.94-64.54,7.57c-13.18,1.61-26.38,3.23-39.42,5.7
	c-5.96,1.13-11.74,3.9-17.24,6.65c-10.92,5.45-21.82,11.01-32.31,17.24c-10.15,6.03-19.51,13.41-29.7,19.37
	c-12.61,7.38-25.7,14.01-40.84,14.39c-10.37,0.26-20.77-0.1-31.11,0.56C663.8,591.29,653.55,594.74,645.48,603.96z"/>
<path d="M384.55,700.31c3.94,7.41,9.69,12.45,17.63,15.69c3.88,1.58,6.44,6.11,10.11,8.51c23.08,15.09,48.29,19.09,75.19,13.96
	c20.12-3.84,40.27-7.47,60.4-11.27c17.38-3.28,34.42-2.06,50.33,5.7c18.21,8.88,35.91,18.78,53.9,28.11
	c2.15,1.11,4.73,1.4,7.11,2.07c-0.26,0.36-0.52,0.72-0.33,0.45c-0.03,0.33,0.01-0.13,0.05-0.58c1.43,0.81,2.87,1.62,4.3,2.43
	c0,0,0.04,0.22,0.04,0.22l0.16-0.29c1.35,2.24,2.15,5.34,4.13,6.56c12.11,7.47,21.22,18.36,31.98,27.35
	c13.68,11.42,28.04,21.62,44.72,28.45c20.98,8.59,42.63,13.76,65.27,14.55c18.09,0.63,35.27,5.71,52.74,9.69
	c7.92,1.8,14.79,5.29,21.91,8.6c1.85,0.86,3.56,2.03,5.81,3.34c-6.87,6.64-14.77,9.4-23.03,10.74c-30.24,4.93-60.02,3.21-89.65-5.31
	c-11.08-3.18-23.1-3.02-34.64-4.71c-11.34-1.66-22.78-3.1-33.89-5.82c-10.66-2.62-20.95-6.76-31.4-10.23l-0.25,0.09
	c-0.34,0.37-0.69,0.74-1.03,1.12l0.16,0.04c-0.28-1.08-0.57-2.16-0.86-3.24l-0.03-0.08c-2.62-1.53-5.24-3.05-7.86-4.58
	c0,0,0.14,0.17,0.14,0.17c-0.63-0.05-1.56,0.16-1.84-0.18c-5.49-6.54-11.26-12.89-16.2-19.82c-2.65-3.71-3.81-8.47-5.71-12.73
	c-10.06-22.58-29.03-33.26-52.18-35.28c-17.95-1.57-36.26-0.09-54.34,1.09c-18.11,1.18-36.16,3.48-54.18,5.68
	c-11.03,1.34-21.98,3.32-32.94,5.18c-15.56,2.63-30.36-1.09-44.92-5.69c-18.24-5.76-36.25-12.23-54.41-18.22
	c-2.59-0.85-5.48-0.78-8.3-1.15c-1.18-0.83-2.56-2.59-4.14-2.79c-16.79-2.14-27.99-11.42-36.28-25.9
	c-9.32-16.26-25.04-19.22-42.22-17.53c-20.59,2.03-41.21,3.84-61.75,6.33c-28.87,3.49-57.57,8.08-85.52,16.44
	c-21.77,6.51-43.29,13.69-63.41,24.43c-12.49,6.67-24.72,13.8-37.19,20.51c-3,1.61-6.46,2.34-10.41,3.71
	c-0.24-19.62-0.56-38.38-0.54-57.13c0-1.62,2.02-3.5,3.51-4.8c8.89-7.78,17.23-16.46,27.06-22.79c8.54-5.5,18.57-9.12,28.39-12.12
	c18.39-5.61,37.55-4.23,56.5-4.65c14.66-0.32,29.5,0.2,43.92-1.94c12.78-1.89,25.16-6.71,37.6-10.61
	c21.42-6.72,42.48-15.4,65.54-13.68c8.89,0.66,17.92,2.14,26.41,4.79c22.12,6.92,44.03,14.52,65.89,22.24
	c5.46,1.93,10.35,5.42,15.62,7.96c2.42,1.17,5.12,1.77,7.46,2.55c-1.91,4.63,2.14,4.17,5.48,4.38
	C384.63,700.31,384.55,700.31,384.55,700.31z"/>
<path d="M179.04,586.91c7.82-9.18,15.28-18.7,23.55-27.44c9.6-10.14,19.53-20.03,30.04-29.2c7.87-6.86,16.83-12.48,25.4-18.52
	c24.15-17,51.52-24.69,80.44-28.44c6.58-0.85,14.07-0.18,19.44-6c0.95-1.03,3.22-0.85,5.08-0.59c-1.3,0.52-2.61,1.03-3.91,1.55
	c11.44-0.88,21.6-5.41,31.68-10.3c15.08-7.31,29.68-16.24,45.52-21.15c23.41-7.25,47.58-12.3,71.7-16.86
	c15.07-2.85,30.68-4.53,45.96-4.08c16.64,0.49,33.19,4.11,49.79,6.26c3.72,0.48,7.49,0.55,11.94,0.86c0.9,0.47,2.57,1.97,4.42,2.24
	c25.48,3.7,50.95,7.58,76.5,10.69c17.8,2.17,34.39-3.53,50.59-10.14c6.94-2.83,13.52-6.66,20.59-9.08
	c9.35-3.19,19.15-5.06,28.53-8.17c34.07-11.3,67.98-23.06,102.07-34.29c22.13-7.29,44.56-13.63,68.27-11.77
	c13.1,1.02,24.25,5.6,29.81,17.93c-13.35,11.22-26.01,22.47-39.33,32.87c-13.69,10.68-30.4,13.75-47.08,16.19
	c-27.3,4-54.39,8.41-78.96,22.25c-10.71,6.03-21.71,11.62-32.91,16.69c-17.07,7.72-35.51,9-53.87,9.66
	c-21.9,0.8-43.88,2.04-65.72,0.97c-15.64-0.77-31.12-4.99-46.67-7.71c-15.73-2.75-31.36-6.68-47.21-8.03
	c-23.16-1.97-45.26,4.43-66.96,12.01c-23.36,8.16-46.55,16.89-70.24,23.97c-14.88,4.45-30.61,5.93-45.8,9.43
	c-14.22,3.28-29.02,5.75-42.13,11.71c-14.6,6.64-27.63,16.78-41.25,25.54c-1.73,1.11-2.88,3.12-4.3,4.72l0.26,0.18
	c-19.8,15.09-42.02,25.65-64.98,34.87c-2.73,1.1-5.11,3.08-8.31,5.06c-2.09,0.24-5.6,0.01-8.63,1.11
	c-16.08,5.83-32.54,7.68-49.42,5.17c-3.75-0.56-7.36-2.09-11.31-3.26c2.71-6.1,5.1-11.48,7.51-16.86
	C179.19,586.93,179.04,586.91,179.04,586.91z"/>
<path d="M101.57,461.08c-5.11,3.68-10.48,7.05-15.23,11.14c-3.05,2.62-6.17,5.83-5.58,10.85c-5.94,1.13-1.59-3.64-3.06-6.5
	c-26.4,10.91-50.71,26.62-79.24,34.36c-0.17-13.88-0.4-27.44-0.39-41c0-1.14,1.37-2.6,2.47-3.36c15.37-10.61,30.91-20.99,46.2-31.72
	c9.03-6.33,17.8-13.04,26.5-19.81c5.5-4.28,10.66-8.97,15.96-13.5c0.74-0.63,1.99-1.36,2-2.05c0.03-5.01,3.76-5.66,7.33-6.77
	c1.56-0.49,2.93-1.56,5.08-2.75c-6.2-5.75-13.21-8.39-20.21-8.04c-10.23,0.52-20.52,2.3-30.48,4.74
	c-11.32,2.77-30.38,4.54-44.89-0.56c-11.27-3.96-11.25-4-11.4-16.02c-0.19-15.63-0.38-31.27-0.58-46.91
	c15.15,1.19,29.86,2.32,44.56,3.51c22.28,1.79,43.98-0.35,65.14-8.1c18.71-6.86,37.82-12.47,57.93-13.42
	c4.87-0.23,9.76,0.3,14.65,0.38c27.07,0.42,53.74-2.78,80.34-7.71c20.31-3.77,40.94-5.75,61.35-9.05
	c9.54-1.54,18.93-4.16,28.31-6.58c16.22-4.18,32.36-5.32,48.35,0.81c3.61,1.38,7.28,3.01,10.36,5.29c5.27,3.9,4.98,8.19,0.11,12.65
	c-6.97,6.38-15.72,8.21-24.5,10.19c-7.8,1.76-15.56,3.76-23.25,5.96c-1.6,0.46-2.8,2.3-4.79,4.04c-3.89-3.95-9.31-0.33-14.36,1.22
	c-34.32,10.55-67.04,24.61-96.14,46.05c-7.82,5.76-15.23,12.08-22.69,18.32c-14.93,12.49-33.05,18.12-51.02,24.15
	c-16.53,5.54-33.01,11.45-45.64,24.11c-8.23,8.25-15.55,17.41-23.28,26.17L101.57,461.08z"/>
<path d="M166.75,113.65c10.63-4.27,21.26-8.53,32.21-12.93c-1.15-1.61-1.68-2.35-1.45-2.02c6.56-2.24,13.15-4.14,19.46-6.72
	c26.58-10.86,53.03-10.02,80.14-1.29c20.51,6.61,41.65,11.25,62.54,16.67c4.9,1.27,9.87,2.36,14.87,3.16
	c3.92,0.63,7.94,0.69,12.74,1.07c0.44,0.36,1.61,1.99,3.13,2.43c14.04,4.06,28.14,7.92,43.75,12.26c-2.96-4.09-5.35-7.39-7.74-10.68
	c0.29-0.22,0.57-0.44,0.86-0.66c5.03,4.79,10.04,9.62,15.14,14.34c0.8,0.74,2.02,1.1,3.1,1.48c33.56,11.55,67.1,23.15,100.73,34.49
	c2.82,0.95,6.63,4.08,9.3-0.83c2.79,6.44,9.21,5.02,14.09,5.86c21.74,3.76,38.81,13.32,46.97,35.06c1.41,3.76,2.82,7.52,4.37,11.62
	c-13.8,2.94-26.78,1.75-39.71-0.25c-21.72-3.36-41.99-11.6-62.67-18.59c-23.4-7.91-45.92-18.61-70.65-22.55
	c-21.95-3.49-43.81-7.53-65.66-11.58c-10.67-1.97-21.24-4.51-31.87-6.75c-1.4-0.3-3.81-2.4-3.27,1.54c-0.93-0.1-2.44,0.13-2.71-0.35
	c-2.94-5.12-8.29-3.91-12.62-4.62c-24.28-3.99-48.61-4.54-72.9,0.07c-1.25,0.24-2.31,1.54-2.89,1.96c-4.19,0.5-8.42,0.29-12.14,1.57
	c-15.47,5.33-30.79,11.1-46.16,16.72c-10.29,3.76-21.11,6.55-30.64,11.72c-5.46,2.96-10.43,3.16-15.99,4.18
	c-15.4,2.83-30.19,3.97-45.68-0.61c-7.84-2.32-17.04-1.09-25.45-0.09c-6.54,0.77-12.51,0.75-18.91-1.08
	c-12.12-3.46-23.51,1.11-34.83,4.79c-9.1,2.96-18.11,6.17-27.18,9.21c-1.23,0.41-2.59,0.45-4.44,0.76
	c-0.12-9.4-0.4-18.38-0.16-27.34c0.04-1.45,2.1-3.57,3.68-4.15c16.66-6.13,33.43-11.97,50.14-17.98c5.28-1.9,10.72-3.59,15.66-6.19
	c9.7-5.09,20.38-7.24,30.58-10.79c10.84-3.78,22.25-5.9,33.21-9.36c13.14-4.15,26.07-8.95,39.08-13.47L166.75,113.65z"/>
<path d="M290.29,418.56c10.71-5.61,21.22-11.63,32.18-16.7c10.42-4.82,21.17-9,32-12.8c12.58-4.42,25.19-9.28,38.2-11.82
	c13.31-2.6,27.14-3.61,40.73-3.52c21.53,0.14,43.22,1.84,64.29-2.93c14.12-3.2,28.31-8.04,41.11-14.74
	c17.49-9.15,34.79-11.94,53.63-6.54c20.96,6.01,42.47,8.05,64.17,9.18c26.31,1.38,52.8,1.31,78.64,7.39
	c10.56,2.48,20.88,6.02,32.44,9.42c-1.54,1.98-2.28,3.48-3.47,4.39c-19.91,15.17-41.72,26.23-66.92,28.91
	c-8.92,0.95-17.86-0.06-25.75-5.65c-4-2.84-8.29-4.68-11.81-8.77c-2.48-2.89-9.15-3.3-13.82-2.99c-16.15,1.07-32.28,2.63-48.36,4.56
	c-25.1,3.02-50.09,6.92-75.23,9.59c-12.67,1.35-24.93-0.27-36.55-7.49c-8.69-5.4-18.13-0.2-26.75,3.21
	c-21.46,8.49-39.09,23.35-58.17,35.74c-18.26,11.87-38.65,16.06-59.64,19.05c-8.54,1.22-16.91,3.64-25.42,5.16
	c-5.1,0.91-10.38,0.81-15.47,1.75c-18.84,3.48-35.82,11.92-52.97,19.99c-11.63,5.47-23.41,10.65-35.25,15.67
	c-14.58,6.18-29.91,10.93-43.77,18.42c-11.9,6.43-22.48,15.48-33.12,24.03c-13.56,10.91-27.95,18.02-45.93,19.58
	c-14.96,1.3-29.51,6.97-44.35,10.22c-11.76,2.58-23.63,4.84-35.56,6.45c-6.27,0.84-8.44-2.1-5.1-7.61
	c4.88-8.06,10.86-15.65,17.4-22.45c6.18-6.43,13.25-12.26,20.72-17.15c10.51-6.88,21.75-12.66,33.16-19.18
	c0.02,0.03-0.58-1.14-1.43-2.81c1.05,0.1,1.56,0.09,2.04,0.2c2.16,0.5,4.49,1.87,6.43,1.44c24.75-5.53,49.45-11.3,74.15-17.06
	c2.45-0.57,4.83-1.46,8.5-2.59c-3.19-0.81-5.22-1.33-7.25-1.84c-0.02-0.29-0.03-0.58-0.05-0.88c1.76-0.02,3.64-0.46,5.26,0
	c9.75,2.8,16.92-2.36,24.45-7.19c2.95-1.89,7.1-1.85,10.21-3.59c10.52-5.9,20.84-12.14,31.17-18.35
	c13.13-7.9,26.29-15.75,39.24-23.92c7.31-4.61,14.24-9.82,21.35-14.75l-0.19,0.15c0.36-0.43,0.72-0.86,1.08-1.28
	C290.51,418.45,290.29,418.56,290.29,418.56z"/>
<path d="M895.61,939.83c6.08,3.23,12.17,6.45,18.25,9.7c8.93,4.78,18.1,9.18,26.7,14.5c5.45,3.37,10.11,8.07,14.99,12.32
	c0.65,0.56,0.53,2.01,0.77,3.04c-1.02,0.14-2.08,0.53-3.06,0.4c-25.12-3.35-48.55-12.52-72.41-20.43
	c-20.06-6.65-40.68-11.66-61.13-17.08c-18.65-4.95-36.57-1.83-53.42,6.79c-25.85,13.23-53.91,19.41-81.69,26.49
	c-9.51,2.42-19.16,4.29-29.46,6.57c1.6,0.53,2.44,0.81,3.42,1.13c-0.5,0.21-0.81,0.44-1.13,0.47c-12.42,0.84-24.87,1.4-37.26,2.54
	c-29.49,2.71-58.74,1.54-86.93-7.95c-14.13-4.75-27.42-12.04-41.05-18.26c-10.16-4.64-20.56-7.52-31.92-7.83
	c-6.17-0.17-12.3-2.91-18.38-4.71c-0.8-0.24-1.4-1.72-1.77-2.74c-3.73-10.4-11.3-16.43-21.6-19.72
	c-17.92-5.72-36.43-6.02-54.61-3.66c-29.01,3.76-57.72,9.74-86.66,14.04c-37.65,5.6-75.43,7.3-113.22,0.92
	c-17.85-3.02-34.77-9.02-50.67-17.47c-6.75-3.59-12.43-9.22-18.51-14.03c-0.78-0.61-1.69-2.34-1.4-2.75
	c0.65-0.93,1.97-1.8,3.09-1.91c10.87-1.06,21.74-2.14,32.64-2.76c2.91-0.16,5.97,2.06,8.86,1.84c13.18-1.03,26.31-2.82,39.5-3.82
	c16.76-1.27,33.54-2.13,50.33-3c31.04-1.61,62.08-3.96,93.15-4.39c28.3-0.38,56.65,1.03,84.94,2.32
	c18.63,0.85,36.53,5.96,54.1,11.98c2.43,0.83,4.47,3.01,6.51,4.78c13.29,11.56,29.43,17.47,45.76,22.83
	c14.25,4.67,28.54,9.49,43.15,12.71c10.2,2.25,21.01,3.02,31.46,2.52c33.01-1.58,65.8-5.18,97.3-16.05
	c17.8-6.14,35.62-12.15,54.28-15.19c22.8-3.71,45.61-2.43,68.38,0.16c24.97,2.84,48.99,9.5,72.27,18.9c1.23,0.5,2.65,0.5,3.99,0.73
	l-0.23,0.12c1.07,0.01,2.35-0.35,3.17,0.1c3.32,1.81,6.49,3.88,9.72,5.86C895.81,939.87,895.61,939.83,895.61,939.83z"/>
<path d="M92.9,231.13c5.85-1.18,10.73-2.93,15.64-3c9.56-0.13,19.15,1.23,28.7,0.98c11.05-0.29,22.08-1.53,33.09-2.6
	c8.16-0.79,16.25-2.44,24.41-2.9c24.59-1.37,49.18-2.62,73.79-3.42c33.4-1.08,66.83-2.57,100.23-2.22
	c27.08,0.29,54.48,1.25,80.35,10.74c9.31,3.41,17.7,9.32,26.49,14.13c5.63,3.08,10.98,6.8,16.86,9.24
	c10.81,4.49,21.78,8.67,32.93,12.22c16.28,5.18,32.61,10.73,50.05,10.02c17.35-0.71,34.73-1.28,52.02-2.87
	c29.76-2.75,57.76-12.76,86.01-21.79c20.41-6.52,41.44-9.05,63-8c22.89,1.11,45.57,3.28,67.77,9.16
	c26.56,7.04,51.51,17.99,75.37,31.49c10.34,5.85,20.64,11.81,30.74,18.07c2.65,1.64,4.5,4.57,6.46,8.39
	c-6.02-0.64-12.29-0.42-18.01-2.08c-19.84-5.76-39.47-12.24-59.22-18.32c-7.28-2.24-14.23-7.08-22.5-3.22
	c-0.57,0.27-2.03-1.37-3.93-2.73c2.23-0.24,3.12-0.34,4.09-0.45c-0.27-0.42-0.41-0.94-0.67-1.01c-12.66-3.19-25.36-6.21-37.99-9.52
	c-17.57-4.61-33.88-0.55-49.98,6.44c-12.7,5.51-25.47,10.99-38.57,15.42c-12.45,4.21-25.36,7.04-38.54,10.6
	c1.08,0.57,1.82,0.96,2.59,1.36c-0.27,0.26-0.61,0.78-0.79,0.73c-9.23-2.65-17.68,1.66-26.3,3.34
	c-39.24,7.64-78.58,11.49-118.04,2.71c-12.45-2.77-24.46-7.83-36.38-12.56c-9.49-3.76-18.27-9.42-27.88-12.74
	c-7.97-2.76-16.64-3.87-25.1-4.75c-8.93-0.93-16.67-3.6-20.89-11.85c-5.4-10.56-14.96-14.64-25.37-17.01
	c-18.48-4.2-37.44-4.24-55.86-1.12c-7.68,1.3-15.47,0.77-23.11,2.79c-8.43,2.24-17.33,2.66-25.98,4.15
	c-14.2,2.44-28.27,6.12-42.56,7.43c-21.18,1.94-42.51,3.07-63.78,3.1c-28.19,0.03-55.71-4.65-81.06-17.8
	c-8.96-4.64-17.14-10.79-25.6-16.37C94.53,234.76,94.2,233.38,92.9,231.13z"/>
<path d="M591.4,1151.24c-3.98,1.28-8.25,2.02-11.89,3.94c-20.55,10.85-42.56,15.74-65.57,17.77c-44.29,3.92-87.03-4.57-129.77-14.44
	c-22.35-5.16-43.7-12.81-64.75-21.67c-15.67-6.6-31.67-7.17-48.02-1.98c-17.28,5.49-34.89,9.98-52.1,15.68
	c-16.64,5.51-32.86,12.28-49.45,17.94c-10.04,3.43-20.41,5.97-31.15,5.28c-0.33-0.58-0.67-1.16-1-1.74
	c4.16-3.27,8.01-7.07,12.52-9.73c18.98-11.17,37.6-23.14,57.37-32.72c41.97-20.35,86.79-28.45,133.33-26.84
	c20.69,0.72,40.39,6.62,59.92,12.89c20.9,6.71,42.28,10.97,64.04,13.5c25.36,2.95,50.75,3.29,75.95-0.9
	c8.94-1.49,17.56-5.22,26.17-8.38c10.22-3.75,20.52-7.45,30.29-12.19c8.3-4.03,16.1-9.21,23.77-14.4
	c9.41-6.38,19.42-11.21,30.37-14.27c20.25-5.65,41-8.18,61.88-9.07c28.34-1.2,56.72-2.2,85.08-2.04c29.71,0.17,59.42,1.54,89.11,2.9
	c21.81,1,43.56,3.24,65.38,4.07c9.2,0.35,18.48-2.05,27.74-2.17c6.08-0.08,12.18,1.68,18.27,2.62c0.26,0.75,0.53,1.5,0.79,2.25
	c-6,4.66-11.77,9.67-18.06,13.9c-20.91,14.06-44.62,20.33-69.19,23.57c-26.85,3.54-53.89,3.44-80.77,0.86
	c-20.57-1.97-40.95-5.87-61.42-8.93c-0.77-0.11-1.51-0.48-2.28-0.55c-23.28-2.3-46.47-6.28-70-3.99
	c-11.93,1.16-23.65,3.35-33.89,10.1c-2.51,1.66-5.13,3.95-6.4,6.58c-5.71,11.81-15.27,16.65-27.91,16.75
	c-13.18,0.11-24.49,5.93-35.59,12.16c-1.23,0.69-1.96,2.26-2.93,3.42l0.26-0.04L591.4,1151.24z"/>
<path d="M954.57,797.73c-20.94-16.95-42.91-32.23-67.6-43.38c-17.88-8.08-35.63-3.8-53.76-1.27c-14.24,1.98-28.79,2.05-43.21,2.26
	c-10.34,0.15-20.69-0.98-31.04-1.34c-41.61-1.47-81.86-8.86-119.1-28.36c-11.57-6.06-22.43-13.5-33.6-20.32
	c-20.94-12.8-42.74-21.73-68.23-20.64c-10.17,0.43-20.77-3.2-30.76-6.3c-13.83-4.28-27.37-3.7-40.97-0.05
	c-17.45,4.68-34.9,6.52-52.61,1.65c-0.93-0.26-2-0.61-2.87-0.39c-1.16,0.29-2.2,1.1-3.29,1.69c0.94,1.09,1.82,3.02,2.83,3.09
	c2.56,0.19,5.17-0.46,8.75,0.28c-1.57,1.24-3.08,3.43-4.72,3.52c-3.08,0.18-8.54,2.08-8.28-3.32c0.41-8.69-4.4-13.05-10.69-17.12
	c-1.69-1.09-2.79-3.1-4.51-5.1c1.81-1.06,3-2.03,4.37-2.51c17.68-6.22,35.3-13.3,54.16-14.27c9.94-0.51,20.4,1,30.02,3.72
	c23.93,6.78,48.37,9.53,72.97,9.6c31.6,0.09,60.86,8,89.11,21.49c23.32,11.14,46.72,22.2,70.59,32.06
	c24.85,10.26,50.91,13.64,77.42,7.12c8.88-2.19,17.75-5.35,25.88-9.52c17.91-9.17,35.38-9.55,53.67-1.19
	c30.25,13.83,59.23,29.84,87.47,47.4c17.76,11.05,36.7,20.19,54.98,30.43c4.69,2.63,8.9,6.13,13.93,9.66
	c0.48-2.11,0.75-3.26,1.21-5.3c2.85,2.26,5.16,4.28,7.66,6.03c2.2,1.53,4.45,3.44,6.94,4.01c9.26,2.11,19.16,1.97,27.16,8.22
	c1.53,1.2,3.12,2.39,4.42,3.82c4.18,4.6,4.16,9.02-1.37,11.46c-7,3.08-14.72,6.14-22.16,6.22c-11.76,0.13-23.55-2.21-35.33-3.52
	c-2.65-0.29-5.45-0.2-7.92-1.03c-3.81-1.28-7.6-2.87-11.05-4.92c-10.2-6.03-20.21-12.39-30.35-18.53
	c-3.29-1.99-6.76-3.71-10.14-5.55L954.57,797.73z"/>
<path d="M586.34,1013.78c-27.5,7.43-55.09,11.54-82.91,12.83c-28.52,1.32-57.12,0.97-85.68,1.03c-12.69,0.02-25.41-0.45-38.07-1.32
	c-4.93-0.34-9.79-2.2-14.59-3.65c-7.96-2.41-15.87-5-23.77-7.63c-9.43-3.14-19.05-5.86-28.18-9.72
	c-19.66-8.3-40.42-11.71-61.26-14.88c-10.79-1.64-21.58-3.44-32.44-4.32c-25.28-2.04-48.65,5.23-71.29,15.63
	c-21.01,9.65-41.83,19.76-63.19,28.59c-24.35,10.07-50.09,11.33-76.06,8.8c-1.46-0.14-3.84-2.26-3.91-3.56
	c-0.45-8.55-0.39-17.12-0.5-26.14c4.63-0.06,8.68-0.36,12.71-0.11c23.89,1.45,46.56-3.22,67.89-13.91
	c27.62-13.84,57.22-21.51,87.06-28.46c15.94-3.72,32.09-1.46,47.9,0.52c17.16,2.15,34.03,6.57,51.01,10.05
	c28.77,5.89,57.43,12.46,86.35,17.45c14.73,2.54,29.97,2.04,44.95,3.35c22.94,2.01,45.9,3.93,68.75,6.75
	c24.96,3.07,49.83,3.76,74.82,0.69c12.58-1.54,24.99-1.49,35.85,6.65c0.58,0.43,1.48,0.43,2.23,0.64
	C584.66,1013.24,585.33,1013.46,586.34,1013.78z"/>
<path d="M1063.27,1021.53c-14.53,2.94-27.85,4.5-41.31,3.44c-29.2-2.3-58.34-5.5-87.56-7.24c-17.35-1.03-34.82,0.12-52.23,0.12
	c-22.3,0-44.61-0.57-66.9-0.16c-19.17,0.36-38.22,2.53-56.55,8.64c-2.93,0.97-5.39,3.29-8.18,4.79c-0.7,0.37-1.94-0.35-2.72-0.04
	c-4.27,1.7-8.49,3.52-12.7,5.37c-2.09,0.92-4.2,3.02-6.15,2.85c-9.32-0.81-16.89,4.43-25.17,6.93c-15.07,4.54-30.09,7.96-46.01,7.08
	c-6.14-0.34-12.39,1.06-18.58,1.76c-2.32,0.26-4.66,1.31-6.92,1.13c-16.51-1.33-31.67,3.61-46.58,9.72
	c-19.82,8.12-39.94,7.62-60.36,2.77c-6.7-1.59-13.54-2.56-20.31-5.11c1.99-0.17,3.98-0.51,5.96-0.47
	c25.2,0.49,49.24-5.39,72.47-14.33c8.03-3.09,17.35-3.78,24.03-9.12c9.77-7.81,21.82-7.64,32.64-11.56
	c11.18-4.04,22.96-6.44,34.1-10.56c14.73-5.45,29.13-11.82,43.61-17.93c18.5-7.8,37.66-10.92,57.76-9.69
	c22.62,1.38,45.3,1.74,67.94,2.94c26.12,1.39,52.23,3.08,78.33,4.9c22.59,1.57,45.15,3.66,67.74,5.19
	c13.44,0.91,26.96,0.73,40.37,1.84C1042.58,1005.84,1053.42,1011.22,1063.27,1021.53z"/>
<path d="M857.23,140.38c1.33,1.02,2.88,2.96,4.85,3.59c26.18,8.32,52.38,16.59,78.67,24.56c12.49,3.78,23.62,9.8,33.05,18.71
	c2.02,1.91,2.53,5.44,4.45,9.9c-8.21-1.15-15.78-1.32-22.81-3.36c-21.15-6.11-42.37-12.17-63.03-19.69
	c-28.14-10.25-57-17.59-86.02-24.62c-18.76-4.54-37.32-9.91-56.05-14.58c-4.62-1.15-9.6-1.6-14.34-1.25
	c-4.88,0.37-8.1-2.51-12.1-3.89c-5.59-1.92-11.88-2.03-17.9-2.41c-23.54-1.48-46.77,1.91-70.07,4.52
	c-18.85,2.11-37.76,3.28-56.33-2.97c-5.43-1.83-11.49-1.76-17.24-2.69c-7.85-1.27-15.66-3.58-23.53-3.8
	c-12.04-0.35-24.15,0.3-36.18,1.27c-14.88,1.19-29.28,0-43.02-6.14c-10.66-4.76-21.25-9.67-31.79-15.46
	c1.51,0.13,3.08,0.07,4.54,0.42c19.11,4.7,38.56,6.68,58.12,5.21c21.02-1.57,41.93-4.51,62.91-6.61
	c10.69-1.07,21.43-2.21,32.16-2.28c21.02-0.14,41.54-3.72,62.18-7.04c10.14-1.63,20.59-1.73,30.91-1.85
	c15.76-0.18,29.93,6.76,44.71,10.91c25.9,7.29,51.82,14.55,77.57,22.36c16.6,5.03,32.89,11.08,49.37,16.52
	C852.37,140.4,854.77,140.17,857.23,140.38z"/>
<path d="M6.66,1135.98c-0.38-1.29-0.57-1.66-0.58-2.03c-0.06-4.3-1.58-9.49,0.3-12.65c1.7-2.87,7.04-3.73,10.9-5.13
	c26.89-9.76,53.86-19.27,80.69-29.18c21.02-7.76,41.98-15.7,62.76-24.08c19.17-7.73,39.04-9.12,59.3-8.02
	c15.02,0.82,30.02,2,45.05,2.64c25.19,1.08,50.42,1.27,75.57,2.92c23.55,1.54,46.99,4.71,70.51,6.7c11.09,0.94,22.3,0.4,33.39,1.29
	c12.59,1.01,25.37,1.81,37.56,4.76c6.92,1.68,12.85,7.47,19.23,11.42c-0.08,0.79-0.16,1.59-0.24,2.38
	c-1.98,0.45-3.94,1.08-5.95,1.31c-2.32,0.26-4.69,0.24-7.03,0.21c-18.92-0.19-37.96,0.82-56.74-0.9
	c-32.33-2.97-64.56-5.59-97.11-4.7c-24.02,0.66-48.11-1.11-72.15-0.89c-29.91,0.26-58.85,5.64-86.91,16.76
	c-18.56,7.36-37.94,12.74-57.21,18.11c-6.39,1.78-13.57,0.58-20.37,1.1c-7.17,0.55-14.31,1.5-21.46,2.31
	c-4.64,0.52-9.31,1.76-13.9,1.52c-12.69-0.67-23.98,3.28-35.29,8.45C20.75,1133.12,13.64,1134.09,6.66,1135.98z"/>
<path d="M1097.31,561.5c-1.37-6.78-6.91-3.23-11.69-2.96c0.75-1.39,1.24-2.29,1.72-3.2c-11.85-6.94-15.86-8.07-17.67-5.95
	c-2.58-1.87-5-3.77-7.55-5.44c-4.63-3.03-10.43-5.03-13.78-9.07c-6.32-7.62-11.84-16.06-16.61-24.76
	c-6.9-12.6-11.92-26.19-23.04-36.23c-7.12-6.43-15.34-9.15-24.45-9.44c-9.77-0.31-19.57-0.04-29.35,0.28
	c-4.7,0.16-6.02-1.83-6.06-6.25c-0.12-14.19,6.69-24.22,20.25-25.92c16.15-2.02,31.98-4.23,46.98-11.19
	c9.57-4.44,17.47-0.01,23.78,7.44c9.09,10.72,13.51,23.59,16.81,37c2.09,8.5,4.43,16.94,6.87,25.34
	c3.34,11.49,11.67,18.1,22.77,20.56c19.04,4.23,38.3,7.49,57.42,11.37c14.52,2.95,28.97,6.22,43.44,9.4
	c1.32,0.29,2.79,0.67,3.79,1.49c2.58,2.13,6.93,4.6,6.87,6.83c-0.08,2.81-3.27,6.53-6.1,8.09c-9.84,5.44-19.72,11.3-30.3,14.81
	c-17.77,5.88-36.05,8.82-54.18,0.18C1104.45,562.57,1101.13,562.38,1097.31,561.5z"/>
<path d="M914.71,90.7c6.25-2.93,12.41-6.05,18.79-8.65c1.74-0.71,4.15,0.41,6.22,0.25c15.96-1.27,31.74-3.06,46.99-8.79
	c18.39-6.91,37.63-11.25,57.35-9.48c13.5,1.21,26.82,4.65,40.16,7.39c23.37,4.8,46.69,9.82,70.03,14.78
	c0.72,0.15,1.36,0.66,3.25,1.61c-7.16,1.62-13.41,2.45-19.25,4.47c-14.38,4.96-28.66,10.23-42.83,15.78
	c-26.03,10.19-51.91,8.69-77.88-0.09c-8.13-2.75-16.4-5.09-24.62-7.6c-15.75-4.8-31.35-2.03-46.91,1.07
	c-22.96,4.58-45.8,9.79-68.85,13.84c-21.27,3.73-42.45,3.1-62.64-5.98c-2.67-1.2-5.17-2.77-7.78-4.09
	c-4.85-2.44-8.51-8.71-15.8-3.38c0.03-0.62,0.05-1.23,0.08-1.85c1.32-1.15,2.64-2.31,4.02-3.52C788.5,81.39,773,78.37,760.24,71.71
	c0.24-0.83,0.48-1.65,0.73-2.48c7.15,0.5,14.42,0.37,21.41,1.71c5.12,0.97,10.08,3.46,14.75,5.96
	c27.76,14.9,56.64,24.14,88.67,18.48c9.68-1.71,19.39-3.21,29.09-4.81L914.71,90.7z"/>
<path d="M596.27,850.11c13.55,9.07,27.53,15.12,40.94,22.03c13.44,6.91,27.41,12.79,41.08,20.05c-3.26-0.32-6.55-1.11-9.77-0.88
	c-18.88,1.31-37.81,2.32-56.6,4.45c-21.12,2.4-41.58,1.12-61.42-7.57c0.21,1.07,0.33,1.74,0.58,3c-1.53-1-2.62-1.74-3.74-2.42
	c-8.48-5.18-16.96-10.36-25.46-15.51c-3.45-2.09-7.18-3.81-10.38-6.23c-12.49-9.42-26.83-13.37-42.1-14.2
	c-27.51-1.48-55.06-2.36-82.57-3.94c-24.7-1.42-48.39-6.47-68.59-22.13c-8.09-6.27-14.96-13.32-18.26-23.46
	c-3.13-9.6-10.17-15.75-19.06-20.34c-3.45-1.78-5.97-5.36-8.44-8.83c12.52,2.26,24.85,4.25,34.44,13.65
	c7.43,7.28,14.85,14.62,25.11,18.24c3.23,1.14,6.17,3.7,8.7,6.17c10.49,10.29,24.06,13.29,37.66,15.82
	c7.37,1.37,15.05,0.92,22.53,1.84c3.3,0.41,6.43,3.12,9.65,3.15c10.08,0.12,20.18-0.64,30.27-0.84c7.96-0.16,16.28-1.46,23.82,0.33
	c16.04,3.8,31.95,1.87,47.86,0.93c26.7-1.59,52.12,2.4,76.17,14.41C591.28,849.14,594.32,849.55,596.27,850.11z"/>
<path d="M878.99,575.56c5.35-1.65,10.8-3.04,16.05-4.98c20.13-7.42,40.96-11.5,62.33-12.4c15.79-0.66,31.65-1.18,47.41-0.43
	c11.77,0.56,23.44,3.23,35.16,4.97c0.37,0.66,0.73,1.32,1.1,1.97c-3.11,4.73-5.75,9.86-9.42,14.11
	c-12.67,14.72-29.91,21.18-48.32,24.02c-15.79,2.43-31.86,3.1-47.83,4.29c-33.7,2.52-67.41,4.89-101.12,7.31
	c-13.42,0.97-26.85,2.73-40.26,2.61c-8.09-0.07-16.15-3.06-24.45-5.89c9.22-13.28,19.04-25,35.97-26.46
	c7.54-0.65,15.24,0.03,22.82,0.63c16.48,1.3,32.38-0.74,47.61-7.31c1.19-0.52,2.2-1.48,3.29-2.23L878.99,575.56z"/>
<path d="M320.96,858.85c-16.24,3.58-31.37,2.7-45.26-6.36c-2.38-1.55-5.68-5.81-9.33-0.99c-0.16,0.21-2.39-0.55-2.41-0.93
	c-0.27-4.55-4.13-3.95-6.8-4.72c-9.53-2.74-19.01-6.87-28.7-7.49c-13.1-0.83-26.38,1.44-39.59,1.75
	c-18.85,0.44-35.55,8.06-52.72,14.45c-5.93,2.21-12.43,3.5-18.76,3.93c-15.54,1.05-29.31,7.69-43.63,12.66
	c-22.24,7.72-44.92,11.82-68.51,8.33c-0.57-0.08-1.11-0.33-2-0.6c-0.2-16.49-0.41-33.04-0.61-49.91c20.04-3.9,38.44,6.86,59.72,5.78
	c-2.46,0.9-3.32,1.21-4.4,1.61c20.31,7.94,40.51,7.14,61.12,1.74c25.09-6.57,50.32-12.61,75.62-18.35
	c17.42-3.95,35.03-5.55,52.83-1.57c16.02,3.58,30.6,9.38,40.3,23.54c4.74,6.91,11.8,9.67,19.37,11.95
	C311.86,855.07,316.37,857.1,320.96,858.85z"/>
<path d="M590.44,43.76c-18.32,1.7-32.46-5.03-46.75-14.1c-15.32-9.74-31.94-18.24-50.22-21.58c-7.81-1.43-16-0.57-23.97-1.28
	c-20.92-1.85-41.18,1.16-61.27,6.93c-5.89,1.69-12.44,2.41-18.52,1.82c-11.96-1.17-23.36,0.86-34.72,3.81
	c-32.78,8.52-65.15,8.4-97.36-3.11c-19.25-6.88-38.83-12.84-58.34-20.16c1.73-0.15,3.45-0.41,5.18-0.43
	c103.13-1.29,206.25-2.77,309.38-3.61c17.2-0.14,31.52,8.94,40.94,22.86c7.24,10.69,15.57,18.71,27.3,23.63
	C585.07,39.79,587.66,41.99,590.44,43.76z"/>
<path d="M727.53,8.94c3.37-0.04,6.95,0.03,10.53-0.15c9.75-0.48,19.48-1.38,29.23-1.55c15.55-0.28,29.8-3.85,43.06-12.57
	c6.74-4.44,14.45-7.42,23.52-7.03c16.78,0.73,33.64-0.15,52.04-0.37c-9.45,9.04-16.27,19.02-29.47,20.88
	c-6.09,0.86-12.69,1.97-17.78,5.08c-6.58,4.02-12.18,9.83-17.65,15.41c-19.71,20.1-43.79,23.55-69.3,16.39
	c-29.07-8.16-57.65-18.1-86.27-27.77c-12.33-4.17-24.39-9.27-36.27-14.61c-6.6-2.97-12.59-7.29-19.88-11.61
	c2.85-0.2,4.52-0.4,6.2-0.42c21.92-0.29,43.85-0.73,65.77-0.68c4.61,0.01,9.75,0.88,13.64,3.12c2.98,1.71,4.18,6.33,6.5,9.41
	c5.96,7.9,14.49,9.23,23.59,8.63C725.9,11.01,726.74,9.63,727.53,8.94z"/>
<path d="M860.38,245.95c-1.7-1.84-2.73-3.42-4.16-4.41c-4.77-3.29-9.67-6.39-14.55-9.5c-1.31-0.84-2.67-1.97-4.12-2.15
	c-16.16-2.09-17.02-17.96-24.75-27.57c-2.44-3.02-1.3-6.66,1.92-9.3c3.19-2.61,6.08-1.83,8.88,0.54c3.54,2.99,7.03,6.06,10.56,9.06
	c6.68,5.68,14.83,8.89,23.17,8.67c21.45-0.56,42.9-1.93,64.28-3.73c32.64-2.75,64.96-3.02,95.28,11.67
	c18.81,9.11,28.88,24.9,31.06,45.67c0.06,0.57-0.03,1.17-0.15,1.74c-0.07,0.36-0.33,0.69-1.21,2.42
	c-5.97-2.69-12.19-5.13-18.06-8.24c-8.09-4.29-15.89-9.13-23.88-13.62c-1.5-0.84-3.26-1.53-4.95-1.67c-4.25-0.35-7.04-2.2-9.84-5.63
	c-5.38-6.62-13.85-5.25-21.24-6.44c-3.27-0.53-6.64-0.49-9.86-1.18c-11.26-2.41-21.65-0.37-31.58,5.3
	c-8.64,4.94-17.94,7.49-28.03,7.2c-11.33-0.33-22.66-0.42-34-0.36C863.2,244.43,861.25,245.66,860.38,245.95z"/>
<path d="M164.79,616.82c-3.8,10.95-10.78,18.36-19.48,24.43c-17.32,12.06-37.28,15.82-57.63,17.32c-27.87,2.06-55.81,3.13-83.72,4.6
	c-0.95,0.05-1.91-0.17-3.65-0.34c-0.12-9.95-0.28-19.86-0.3-29.77c0-0.77,0.73-1.88,1.43-2.27c5.97-3.3,11.71-7.49,18.11-9.43
	c9.72-2.95,19.89-4.53,29.94-6.29c24.49-4.28,49.12-7.09,74.02-4.58c11.62,1.17,23.18,2.92,34.76,4.52
	C160.29,615.29,162.25,616.1,164.79,616.82z"/>
<path d="M1199.47,367.36c-6.73-2.63-12.21-5.14-17.93-6.9c-6.82-2.1-13.95-3.18-20.74-5.36c-11.06-3.56-22-7.51-32.89-11.57
	c-6.2-2.31-12.33-4.92-18.26-7.86c-8.15-4.04-10.39-9.3-7.1-17.81c1.84-4.75,3.75-9.29,8.98-12.54
	c18.54-11.52,37.82-10.34,57.66-5.35c8.51,2.14,17.06,4.11,25.49,6.51c1.6,0.45,3.87,2.51,3.91,3.88
	C1199.09,329.07,1199.23,347.8,1199.47,367.36z"/>
<path d="M187.16,49.23c-6.6-2.42-12.38-3.98-17.63-6.6c-7.48-3.73-14.32-8.76-21.88-12.26c-7.71-3.56-15.98-5.9-23.96-8.89
	c-1.66-0.62-4.14-1.42-4.54-2.67c-1.49-4.76-5.11-6.31-9.26-6.92C97.38,10.08,84.86,8.3,72.29,7c-3.77-0.39-7.7,0.85-12.92,1.52
	c2.09,0.86,2.94,1.21,2.22,0.91c-10.6,3.62-22.13,8.27-34.06,11.42c-11.33,2.99-23.1,2.91-34.95,1.48
	c-0.1-8.18-0.19-15.75-0.29-23.82c2.01-0.12,3.89-0.31,5.77-0.34C48.52-2.46,99-3.14,149.47-3.55c3.64-0.03,7.83,1.17,10.87,3.17
	C177.48,10.92,186.22,27.02,187.16,49.23z"/>
<path d="M878.94,906.23c8.74-13.38,19.86-18.84,34.86-16.84c14.92,1.99,29.43,0.19,43.86-4.65c11.93-4.01,24.28-7.53,36.72-9.11
	c21.72-2.77,43.63-2.84,65.25,1.93c2.21,0.49,4.37,1.22,7.19,2.02c-5.1,11.47-13.84,17.92-24.59,20.79
	c-10.47,2.8-21.39,4.63-32.21,5.27c-28.48,1.69-57,2.6-85.52,3.61c-11.64,0.41-23.3,0.51-34.95,0.23
	C886.24,909.41,882.97,907.52,878.94,906.23z"/>
<path d="M622.31,192.51c7.55-13.3,18.19-20.37,33.14-18.17c15.66,2.3,29.53-2.46,43.64-8.15c29.27-11.8,59.63-14.54,90.71-8.93
	c1.34,0.24,2.63,0.72,3.95,1.06c3.69,0.95,4.39,2.92,1.97,5.89c-10.27,12.6-23.38,20.48-39.59,22.14
	c-18.03,1.85-36.16,2.64-54.2,4.38c-16.5,1.59-32.95,3.8-49.42,5.79C642.33,197.76,632.33,197.84,622.31,192.51z"/>
<path d="M228.16,782.42c-2.54-0.39-5.13-1.33-7.6-1.06c-11.2,1.25-22.32,3.39-33.55,4.21c-28.22,2.06-56.47,3.7-84.72,5.25
	c-9.71,0.53-19.47,0.35-29.1-4.62c5.31-7.76,10.75-14.59,20.73-15.28c4.67-0.32,9.49-0.87,14.04-0.09
	c15.8,2.71,29.98-2.7,44.47-7.54c8.18-2.73,16.76-4.45,25.28-5.91c22.39-3.83,44.62-2.51,67.6,2.96c-1.83,3.96-3.48,7.54-5.3,11.47
	c-5.95,0.39-9.11,5.4-12.24,10.45L228.16,782.42z"/>
<path d="M1178.58,1065.66c-2.69,8.24-7.96,13.04-14.3,16.62c-12.25,6.92-25.87,8.28-39.58,9.03c-26.14,1.44-52.27,3.14-78.43,4.15
	c-11.97,0.46-24.17,2.86-35.94-1.73c-1.4-0.54-2.72-1.28-4.05-1.92c8.2-14.37,21.23-17.27,35.67-15.27
	c13.52,1.88,25.92-1.23,38.3-5.81c26.41-9.76,53.6-11.76,81.34-7.96C1167.1,1063.53,1172.56,1064.63,1178.58,1065.66z"/>
<path d="M1097.58,157.87c-1.55,1.45-3.09,2.9-5.04,4.72c1.39,2.36,2.85,4.82,4.88,8.26c-8,3.55-15.54,7.94-23.68,10.29
	c-13.65,3.93-27.61,6.8-41.55,9.64c-10.93,2.23-21.97,3.68-32.71-1.37c-8.55-4.02-12.1-11.82-9.18-20.7
	c4.25-12.89,16.34-22.27,30.54-22.34c9.89-0.05,19.78,1.42,29.67,2.17c3.92,0.3,7.91,0.16,11.75,0.85c1.86,0.33,3.33,2.56,5.22,3.15
	c7.42,2.35,14.89,4.65,22.47,6.37c1.94,0.44,4.38-1.32,6.59-2.08C1096.89,157.18,1097.24,157.53,1097.58,157.87z"/>
<path d="M890.43,345.39c1.24,3.27,2.73,7.2,4.41,11.62c-5.49,3.11-11.35,6.43-17.21,9.76c0.24,0.16,0.48,0.32,0.72,0.47
	c-3.33,0.42-6.69,0.65-9.97,1.3c-16.83,3.35-33.55,7.39-50.5,9.94c-6.24,0.94-13.26-0.66-19.43-2.65
	c-8.91-2.88-12.42-11.38-9.7-20.39c4.29-14.23,16.92-24,34.24-23.09c14.86,0.77,29.55,4.63,44.32,7.05
	c2.82,0.46,5.73,0.45,8.55,0.91c1.26,0.21,2.38,1.18,3.63,1.6C883.07,343.1,886.68,344.2,890.43,345.39z"/>
<path d="M1183.26,4.13c1.24,3.27,2.73,7.2,4.41,11.62c-5.49,3.11-11.35,6.43-17.21,9.76c0.24,0.16,0.48,0.32,0.72,0.47
	c-3.33,0.42-6.69,0.65-9.97,1.3c-16.83,3.35-33.55,7.39-50.5,9.94c-6.24,0.94-13.26-0.66-19.43-2.65
	c-8.91-2.88-12.42-11.38-9.7-20.39c4.29-14.23,16.92-24,34.24-23.09c14.86,0.77,29.55,4.63,44.32,7.05
	c2.82,0.46,5.73,0.45,8.55,0.91c1.26,0.21,2.38,1.18,3.63,1.6C1175.9,1.84,1179.51,2.94,1183.26,4.13z"/>
<path d="M900.23,800.78c-15.27,8.81-30.25,13.61-45.77,16.63c-15.08,2.94-30.28,5.29-44.44,7.73c-2.02-1.51-3.37-3.07-5.07-3.69
	c-12.62-4.64-16.81-15.92-9.39-28.45c8.75-14.79,23.24-18.1,38.02-16.1c19.2,2.6,38.12,7.69,56.86,12.79
	C894.24,790.74,896.72,796.63,900.23,800.78z"/>
<path d="M1122.52,733.15c-6.84,2.86-14.66,6.45-22.71,9.39c-7.96,2.91-16.05,6.86-24.26,7.35c-14.85,0.89-29.28,7.18-44.52,3.22
	c-15.49-4.03-20.35-15.67-12.02-29.34c7.06-11.59,18.16-15.61,30.77-16.21c14.99-0.7,29.38,3.08,43.7,7
	c2.44,0.67,4.97,1.04,7.35,1.86C1109.5,719.41,1120.3,719.21,1122.52,733.15z"/>
<path d="M967.66,339.54c2.48-7.93,6.71-12.87,15.28-14.65c15.05-3.13,29.8-7.65,44.78-11.18c10.37-2.45,20.64-0.6,30.55,2.73
	c8.69,2.92,17.5,17.1,16.76,26.17c-0.59,7.23-5.56,13.78-14.32,14.81c-10.3,1.21-21.13,1.63-31.25-0.21
	c-17.94-3.24-35.56-8.33-53.24-12.94C973.28,343.51,970.74,341.29,967.66,339.54z"/>
<path d="M775.09,1165.42c-6.63,2.93-13.37,6.52-20.51,8.91c-8.95,3-18.19,5.24-27.4,7.37c-8.18,1.9-16.45,4.07-24.76,4.51
	c-7.53,0.4-15.46-0.38-22.69-2.46c-9.69-2.79-13.05-11.21-9.9-20.81c4.33-13.21,15.47-21.25,30.15-22.22
	c18.71-1.23,36.34,3.86,54.05,8.68c1.49,0.41,2.93,1.09,4.44,1.25C766.94,1151.59,772.29,1156.19,775.09,1165.42z"/>
<path d="M1010.49,949.15c2.94-7.65,6.75-12.54,15.12-14.7c19.98-5.14,39.4-12.66,60.58-11.41c11.37,0.67,20.75,4.85,27.31,14.51
	c9.49,13.99,3.24,27.78-13.4,30.76c-11.92,2.13-23.35-0.36-34.78-2.39c-17.65-3.13-35.32-6.5-51.46-14.98
	C1012.85,950.42,1011.85,949.88,1010.49,949.15z"/>
<path d="M1153.06,388.76c14.85-0.4,28.92,3.64,42.92,7.79c1.68,0.5,3.57,3.35,3.76,5.27c0.56,5.62,0.17,11.32,0.44,16.97
	c0.16,3.32-0.95,4.93-4.32,5.62c-17.34,3.51-34.58,7.58-52,10.6c-5.13,0.89-11.03-0.15-16.09-1.78c-14-4.51-17.72-16.36-9.64-28.71
	C1125.72,392.92,1134.92,388.77,1153.06,388.76z"/>
<path d="M1202.23,617.09c0.13,10.41,0.25,20.5,0.39,31.38c-8.09,0.85-16.15,1.83-24.23,2.51c-19.26,1.6-38.52,3.65-57.81,4.25
	c-7.12,0.22-14.39-2.96-21.47-5.01c-0.79-0.23-1.71-3.88-1.03-4.8c13.13-17.63,30.19-26.35,52.61-22.64
	c16.57,2.74,32.68,0.74,48.37-5.1C1199.94,617.36,1200.92,617.33,1202.23,617.09z"/>
<path d="M127.43,945.97c-3.57,8.57-9.39,14.06-17.19,17.66c-14.47,6.67-30,7.07-45.48,7.7c-16.97,0.69-33.94,1.36-50.91,2
	c-3.07,0.12-6.15,0.09-9.08,0.12c-0.33-0.69-0.62-1.03-0.62-1.37c-0.04-4.68-1.66-10.39,0.45-13.72c1.75-2.75,7.94-2.64,12.13-3.89
	c12.31-3.67,24.41-8.48,36.96-10.83c22.76-4.27,45.75-4.56,68.55,0.69C123.88,944.7,125.46,945.34,127.43,945.97z"/>
<path d="M1206.97,994.79c0.12,9.51,0.23,18.83,0.35,28.38c-3.65,0.04-7.07,0.16-10.49,0.12c-12.29-0.16-24.58-0.32-36.86-0.57
	c-12.68-0.26-25.37-0.44-38.05-1.01c-8.46-0.38-10.65-3.88-7.31-11.39c3.23-7.26,6.72-14.43,10.5-21.42
	c0.64-1.18,3.35-1.83,5.06-1.75c10.32,0.46,20.65,0.94,30.93,1.9c13.38,1.25,26.71,2.95,40.05,4.51
	C1203.06,993.78,1204.93,994.35,1206.97,994.79z"/>
<path d="M1204.7,813.6c0.21,17.29,0.41,33.65,0.62,50.89c-35.25-5.95-70.09-11.83-104.89-17.71c0.06-0.06,0.53-0.9,1.04-0.93
	c18.78-1.21,35.19-9.69,51.96-16.98c14.52-6.3,29.07-12.43,44.91-14.66C1200.23,813.95,1202.15,813.84,1204.7,813.6z"/>
<path d="M1200.52,453.39c0.18,14.59,0.39,27.66,0.41,40.73c0,1.04-1,2.69-1.92,3.05c-12.97,5.03-25.29,12.25-39.8,12.23
	c-1.74,0-3.75,0.22-5.19-0.53c-7.15-3.73-14.3-7.5-21.13-11.77c-2.7-1.69-5.52-3.8-1.22-8.02c3.52-3.45,4.45-9.47,7.78-13.24
	c2.73-3.09,7.05-5.56,11.09-6.57C1167.12,465.11,1184.29,463.13,1200.52,453.39z"/>
<path d="M1203.74,713.29c0.09,6.94,0.17,13.9,0.26,20.86c0.12,10.15-0.16,20.34,0.53,30.45c0.38,5.59-1.83,7.47-6.75,8.35
	c-9.17,1.64-18.2,1.77-27.18-0.96c-15.42-4.68-25.93-23.07-19.24-35.62c2.42-4.53,8.33-7.65,13.27-10.25
	c4.56-2.4,9.97-3.16,14.96-4.78C1187.47,718.78,1195.32,716.1,1203.74,713.29z"/>
<path d="M72.66,253.72c-5.58,13.88-16.32,21.82-30.15,24.53c-14.12,2.77-28.6,3.66-42.93,5.35c-3.03,0.36-4.13-1.06-4.11-4.09
	c0.06-7.43-0.28-14.87-0.09-22.3c0.04-1.46,1.49-3.92,2.65-4.16c24.12-4.98,48.32-6.63,72.54-0.63
	C71.27,252.6,71.86,253.21,72.66,253.72z"/>
<path d="M1101.12,272c8.91-13.36,19.25-20.92,35.27-18.38c13.49,2.14,26.26-1.04,38.59-6.83c6.97-3.27,14.44-5.49,22.88-8.63
	c0.13,10.36,0.35,19.42,0.18,28.47c-0.02,0.86-2.39,2.28-3.78,2.43c-18.21,1.97-36.42,4.05-54.68,5.47
	c-10,0.78-20.11,0.53-30.15,0.33C1106.88,274.8,1104.38,273.17,1101.12,272z"/>
<path d="M1149.8,181.97c-2.55-0.72-5.31-1.06-7.63-2.24c-9.04-4.59-17.95-9.44-26.89-14.24c-0.75-0.41-1.33-1.14-1.87-2.29
	c28.12,6,55.53,2.28,83.47-5.37c0.12,10.08,0.35,19.4,0.19,28.71c-0.02,1.03-2.08,2.49-3.46,2.95c-13.13,4.35-25.77,2.31-38.21-2.99
	c-2.49-1.06-5.34-1.29-8.03-1.91C1148.19,183.72,1149,182.84,1149.8,181.97z"/>
<path d="M1127.23,1168.5c-3.15-4.94-6.46-9.78-9.4-14.84c-1.98-3.4-2.46-6.99,1.18-9.9c3.34-2.67,6.6-3.56,10.39-0.5
	c5.83,4.71,11.5,9.79,17.93,13.54c11.2,6.54,23.86,7.17,36.52,6.95c1.35-0.02,2.71-0.06,4.06-0.09c9.78-0.19,9.78-0.19,8.78,10.47
	c-5.26,0.06-10.62,0.13-15.97,0.2c-13.35,0.16-26.71,0.08-40.04,0.61c-5.76,0.23-10.53-0.38-13.3-6.07L1127.23,1168.5z"/>
<path d="M1161.87,951.14c-0.72-2.25-1.15-3.59-1.59-4.94c1.75,0.11,3.49,0.22,6.58,0.41c10.32-9.81,24.14-5.02,37.33-4.49
	c0.82,0.03,1.61,1.72,2.33,2.7c0.19,0.26,0.04,0.76,0.07,1.15c0.98,12.49,0.96,12.35-11.38,14.25c-12.48,1.92-24.74,2.31-37.17-3.4
	C1159.7,954.36,1161.17,952.18,1161.87,951.14z"/>
<path d="M945.97,23.36c-0.72-2.25-1.15-3.59-1.59-4.94c1.75,0.11,3.49,0.22,6.58,0.41c10.32-9.81,24.14-5.02,37.33-4.49
	c0.82,0.03,1.61,1.72,2.33,2.7c0.19,0.26,0.04,0.76,0.07,1.15c0.98,12.49,0.96,12.35-11.38,14.25c-12.48,1.92-24.74,2.31-37.17-3.4
	C943.8,26.57,945.27,24.4,945.97,23.36z"/>
<path d="M1195,1105.19c-0.88,1.56-1.21,2.14-1.9,3.37c5.41-1.31,10.05-2.43,15.44-3.73c0.03,2.48,0.05,4.37,0.08,6.25
	c0.2,11.33,0.13,12.2-10.85,11.27c-16.76-1.43-33.41-4.2-50.11-6.4c0-0.69,0-1.38-0.01-2.07c1.29-0.25,2.56-0.61,3.86-0.73
	c11.2-1.04,22.41-1.92,33.58-3.17c1.81-0.2,3.38-2.08,5.16-3C1191.56,1106.3,1193.01,1105.92,1195,1105.19z"/>
<path d="M-2.24,437.95c-0.11-9.35-0.21-17.1-0.31-25.15c9.86,1.29,18.64,3.39,20.99,15.68C12.1,431.38,5.33,434.48-2.24,437.95z"/>
<path d="M676.28,849.78l-0.16-0.04c0.7,0.18,1.39,0.37,2.09,0.55c-0.62,0.28-1.24,0.55-1.86,0.83
	C676.33,850.68,676.31,850.23,676.28,849.78z"/>
<path d="M585.03,1140.94c-0.6,0.18-1.19,0.36-1.79,0.54c0.21-0.55,0.42-1.1,0.64-1.64l-0.03-0.11c0.45,0.44,0.9,0.88,1.36,1.32
	L585.03,1140.94z"/>
<path class="st0" d="M658.95,762.95c-0.04,0.46-0.07,0.91-0.05,0.58c-0.19,0.27,0.07-0.09,0.33-0.45
	C659.23,763.08,658.95,762.95,658.95,762.95z"/>
<path d="M585.4,1139.65l-0.25,0.04c-0.04,0.42-0.08,0.83-0.12,1.25l0.17,0.11c0-0.45,0-0.9,0-1.35L585.4,1139.65z"/>
<polygon class="st0" points="663.45,765.32 663.29,765.61 663.25,765.38 "/>
<path d="M166.75,113.65l0.02,0.07c-0.01-0.15-0.01-0.3-0.02-0.45c0.15,0.12,0.3,0.24,0.45,0.36
	C167.06,113.63,166.91,113.64,166.75,113.65z"/>
<path d="M179.04,586.91c0,0,0.15,0.02,0.13,0.01C179.11,586.91,179.08,586.91,179.04,586.91z"/>
<path d="M1127.23,1168.5l0.14,0.36L1127.23,1168.5z"/>
<path d="M101.57,461.08l-0.11,0.07L101.57,461.08z"/>
<path class="st0" d="M228.16,782.42l-0.4-0.15C227.76,782.27,228.16,782.42,228.16,782.42z"/>
<path d="M289.43,419.74l0.19-0.15L289.43,419.74z"/>
<path d="M290.29,418.56c0,0,0.22-0.11,0.22-0.11L290.29,418.56z"/>
<path d="M314.32,560.85l-0.26-0.18L314.32,560.85z"/>
<path d="M384.55,700.31c0,0,0.08,0,0.05-0.01c0.11,0.04,0.25,0.09,0.38,0.14C384.84,700.4,384.7,700.36,384.55,700.31z"/>
<path d="M585.31,1139.52l0.09,0.14l-0.19,0.05c-0.45,0.01-0.91,0.02-1.36,0.03l0.03,0.11
	C584.35,1139.73,584.83,1139.62,585.31,1139.52z"/>
<path d="M954.57,797.73l-0.03-0.22L954.57,797.73z"/>
<path d="M667.69,842.06c0,0-0.14-0.17-0.14-0.17C667.54,841.88,667.69,842.06,667.69,842.06z"/>
<path d="M895.61,939.83c0,0,0.2,0.04,0.21,0.03C895.83,939.86,895.61,939.83,895.61,939.83z"/>
<path d="M878.99,575.56l0.35,0.22L878.99,575.56z"/>
<path d="M882.93,933.9l0.23-0.12L882.93,933.9z"/>
<path d="M675.4,846.46l0.03,0.08L675.4,846.46z"/>
<path class="st0" d="M678.21,850.3c-0.7-0.18-1.39-0.37-2.09-0.55c0.34-0.37,0.69-0.74,1.03-1.11c0.29,0.6,0.59,1.2,0.89,1.8
	L678.21,850.3z"/>
<path d="M678.04,850.43c-0.3-0.6-0.59-1.2-0.89-1.8c0,0,0.25-0.09,0.25-0.09C677.61,849.17,677.82,849.8,678.04,850.43z"/>
<path class="st0" d="M583.85,1139.74c0.45-0.01,0.91-0.02,1.36-0.03c0,0.45,0,0.9,0,1.35
	C584.75,1140.62,584.3,1140.18,583.85,1139.74z"/>
</svg>
